<?xml version="1.0" encoding="UTF-8" standalone="no"?>
<!DOCTYPE svg PUBLIC "-//W3C//DTD SVG 1.1//EN"
 "http://www.w3.org/Graphics/SVG/1.1/DTD/svg11.dtd">
<!-- Generated by graphviz version 2.38.0 (20140413.2041)
 -->
<!-- Title: controllers_diagram Pages: 1 -->
<svg width="897pt" height="853pt"
 viewBox="0.00 0.00 897.00 853.00" xmlns="http://www.w3.org/2000/svg" xmlns:xlink="http://www.w3.org/1999/xlink">
<g id="graph0" class="graph" transform="scale(1 1) rotate(0) translate(371.5 481.5)">
<title>controllers_diagram</title>
<polygon fill="none" stroke="none" points="-371.5,371.5 -371.5,-481.5 525.5,-481.5 525.5,371.5 -371.5,371.5"/>
<!-- _diagram_info -->
<g id="node1" class="node"><title>_diagram_info</title>
<text text-anchor="start" x="-232" y="160.4" font-family="Times,serif" font-size="13.00">Controllers diagram</text>
<text text-anchor="start" x="-232" y="174.4" font-family="Times,serif" font-size="13.00">Date: Aug 23 2016 &#45; 14:34</text>
<text text-anchor="start" x="-232" y="188.4" font-family="Times,serif" font-size="13.00">Migration version: 20160802040730</text>
<text text-anchor="start" x="-232" y="202.4" font-family="Times,serif" font-size="13.00">Generated by RailRoady 1.5.1</text>
<text text-anchor="start" x="-232" y="216.4" font-family="Times,serif" font-size="13.00">http://railroady.prestonlee.com</text>
</g>
<!-- MediaContentsController -->
<g id="node2" class="node"><title>MediaContentsController</title>
<path fill="none" stroke="black" d="M268.5,127C268.5,127 399.5,127 399.5,127 405.5,127 411.5,121 411.5,115 411.5,115 411.5,31 411.5,31 411.5,25 405.5,19 399.5,19 399.5,19 268.5,19 268.5,19 262.5,19 256.5,25 256.5,31 256.5,31 256.5,115 256.5,115 256.5,121 262.5,127 268.5,127"/>
<text text-anchor="middle" x="334" y="34.2" font-family="Times,serif" font-size="14.00">MediaContentsController</text>
<polyline fill="none" stroke="black" points="256.5,42 411.5,42 "/>
<text text-anchor="start" x="264.5" y="57.2" font-family="Times,serif" font-size="14.00">fields</text>
<text text-anchor="start" x="264.5" y="72.2" font-family="Times,serif" font-size="14.00">index</text>
<polyline fill="none" stroke="black" points="256.5,80 411.5,80 "/>
<polyline fill="none" stroke="black" points="256.5,104 411.5,104 "/>
<text text-anchor="start" x="264.5" y="119.2" font-family="Times,serif" font-size="14.00">_layout</text>
</g>
<!-- ProgramsController -->
<g id="node3" class="node"><title>ProgramsController</title>
<path fill="none" stroke="black" d="M-323.5,-208.5C-323.5,-208.5 -222.5,-208.5 -222.5,-208.5 -216.5,-208.5 -210.5,-214.5 -210.5,-220.5 -210.5,-220.5 -210.5,-289.5 -210.5,-289.5 -210.5,-295.5 -216.5,-301.5 -222.5,-301.5 -222.5,-301.5 -323.5,-301.5 -323.5,-301.5 -329.5,-301.5 -335.5,-295.5 -335.5,-289.5 -335.5,-289.5 -335.5,-220.5 -335.5,-220.5 -335.5,-214.5 -329.5,-208.5 -323.5,-208.5"/>
<text text-anchor="middle" x="-273" y="-286.3" font-family="Times,serif" font-size="14.00">ProgramsController</text>
<polyline fill="none" stroke="black" points="-335.5,-278.5 -210.5,-278.5 "/>
<text text-anchor="start" x="-327.5" y="-263.3" font-family="Times,serif" font-size="14.00">show</text>
<polyline fill="none" stroke="black" points="-335.5,-255.5 -210.5,-255.5 "/>
<polyline fill="none" stroke="black" points="-335.5,-231.5 -210.5,-231.5 "/>
<text text-anchor="start" x="-327.5" y="-216.3" font-family="Times,serif" font-size="14.00">_layout</text>
</g>
<!-- TracksController -->
<g id="node4" class="node"><title>TracksController</title>
<path fill="none" stroke="black" d="M-19.5,-113C-19.5,-113 65.5,-113 65.5,-113 71.5,-113 77.5,-119 77.5,-125 77.5,-125 77.5,-299 77.5,-299 77.5,-305 71.5,-311 65.5,-311 65.5,-311 -19.5,-311 -19.5,-311 -25.5,-311 -31.5,-305 -31.5,-299 -31.5,-299 -31.5,-125 -31.5,-125 -31.5,-119 -25.5,-113 -19.5,-113"/>
<text text-anchor="middle" x="23" y="-295.8" font-family="Times,serif" font-size="14.00">TracksController</text>
<polyline fill="none" stroke="black" points="-31.5,-288 77.5,-288 "/>
<text text-anchor="start" x="-23.5" y="-272.8" font-family="Times,serif" font-size="14.00">create</text>
<text text-anchor="start" x="-23.5" y="-257.8" font-family="Times,serif" font-size="14.00">edit</text>
<text text-anchor="start" x="-23.5" y="-242.8" font-family="Times,serif" font-size="14.00">index</text>
<text text-anchor="start" x="-23.5" y="-227.8" font-family="Times,serif" font-size="14.00">new</text>
<text text-anchor="start" x="-23.5" y="-212.8" font-family="Times,serif" font-size="14.00">show</text>
<text text-anchor="start" x="-23.5" y="-197.8" font-family="Times,serif" font-size="14.00">update</text>
<text text-anchor="start" x="-23.5" y="-182.8" font-family="Times,serif" font-size="14.00">viewing</text>
<polyline fill="none" stroke="black" points="-31.5,-175 77.5,-175 "/>
<polyline fill="none" stroke="black" points="-31.5,-151 77.5,-151 "/>
<text text-anchor="start" x="-23.5" y="-135.8" font-family="Times,serif" font-size="14.00">_layout</text>
<text text-anchor="start" x="-23.5" y="-120.8" font-family="Times,serif" font-size="14.00">track_params</text>
</g>
<!-- CoursesController -->
<g id="node5" class="node"><title>CoursesController</title>
<path fill="none" stroke="black" d="M124,111C124,111 216,111 216,111 222,111 228,105 228,99 228,99 228,-75 228,-75 228,-81 222,-87 216,-87 216,-87 124,-87 124,-87 118,-87 112,-81 112,-75 112,-75 112,99 112,99 112,105 118,111 124,111"/>
<text text-anchor="middle" x="170" y="-71.8" font-family="Times,serif" font-size="14.00">CoursesController</text>
<polyline fill="none" stroke="black" points="112,-64 228,-64 "/>
<text text-anchor="start" x="120" y="-48.8" font-family="Times,serif" font-size="14.00">create</text>
<text text-anchor="start" x="120" y="-33.8" font-family="Times,serif" font-size="14.00">edit</text>
<text text-anchor="start" x="120" y="-18.8" font-family="Times,serif" font-size="14.00">index</text>
<text text-anchor="start" x="120" y="-3.8" font-family="Times,serif" font-size="14.00">new</text>
<text text-anchor="start" x="120" y="11.2" font-family="Times,serif" font-size="14.00">show</text>
<text text-anchor="start" x="120" y="26.2" font-family="Times,serif" font-size="14.00">update</text>
<text text-anchor="start" x="120" y="41.2" font-family="Times,serif" font-size="14.00">viewing</text>
<polyline fill="none" stroke="black" points="112,49 228,49 "/>
<polyline fill="none" stroke="black" points="112,73 228,73 "/>
<text text-anchor="start" x="120" y="88.2" font-family="Times,serif" font-size="14.00">_layout</text>
<text text-anchor="start" x="120" y="103.2" font-family="Times,serif" font-size="14.00">course_params</text>
</g>
<!-- LessonsController -->
<g id="node6" class="node"><title>LessonsController</title>
<path fill="none" stroke="black" d="M-164,-176.5C-164,-176.5 -72,-176.5 -72,-176.5 -66,-176.5 -60,-182.5 -60,-188.5 -60,-188.5 -60,-317.5 -60,-317.5 -60,-323.5 -66,-329.5 -72,-329.5 -72,-329.5 -164,-329.5 -164,-329.5 -170,-329.5 -176,-323.5 -176,-317.5 -176,-317.5 -176,-188.5 -176,-188.5 -176,-182.5 -170,-176.5 -164,-176.5"/>
<text text-anchor="middle" x="-118" y="-314.3" font-family="Times,serif" font-size="14.00">LessonsController</text>
<polyline fill="none" stroke="black" points="-176,-306.5 -60,-306.5 "/>
<text text-anchor="start" x="-168" y="-291.3" font-family="Times,serif" font-size="14.00">edit</text>
<text text-anchor="start" x="-168" y="-276.3" font-family="Times,serif" font-size="14.00">index</text>
<text text-anchor="start" x="-168" y="-261.3" font-family="Times,serif" font-size="14.00">new</text>
<text text-anchor="start" x="-168" y="-246.3" font-family="Times,serif" font-size="14.00">propose_update</text>
<text text-anchor="start" x="-168" y="-231.3" font-family="Times,serif" font-size="14.00">show</text>
<polyline fill="none" stroke="black" points="-176,-223.5 -60,-223.5 "/>
<polyline fill="none" stroke="black" points="-176,-199.5 -60,-199.5 "/>
<text text-anchor="start" x="-168" y="-184.3" font-family="Times,serif" font-size="14.00">_layout</text>
</g>
<!-- ProfileController -->
<g id="node7" class="node"><title>ProfileController</title>
<path fill="none" stroke="black" d="M-211.5,351.5C-211.5,351.5 -126.5,351.5 -126.5,351.5 -120.5,351.5 -114.5,345.5 -114.5,339.5 -114.5,339.5 -114.5,270.5 -114.5,270.5 -114.5,264.5 -120.5,258.5 -126.5,258.5 -126.5,258.5 -211.5,258.5 -211.5,258.5 -217.5,258.5 -223.5,264.5 -223.5,270.5 -223.5,270.5 -223.5,339.5 -223.5,339.5 -223.5,345.5 -217.5,351.5 -211.5,351.5"/>
<text text-anchor="middle" x="-169" y="273.7" font-family="Times,serif" font-size="14.00">ProfileController</text>
<polyline fill="none" stroke="black" points="-223.5,281.5 -114.5,281.5 "/>
<text text-anchor="start" x="-215.5" y="296.7" font-family="Times,serif" font-size="14.00">show</text>
<polyline fill="none" stroke="black" points="-223.5,304.5 -114.5,304.5 "/>
<polyline fill="none" stroke="black" points="-223.5,328.5 -114.5,328.5 "/>
<text text-anchor="start" x="-215.5" y="343.7" font-family="Times,serif" font-size="14.00">_layout</text>
</g>
<!-- LessonVersionsController -->
<g id="node8" class="node"><title>LessonVersionsController</title>
<path fill="none" stroke="black" d="M-68,111.5C-68,111.5 66,111.5 66,111.5 72,111.5 78,105.5 78,99.5 78,99.5 78,-73.5 78,-73.5 78,-79.5 72,-85.5 66,-85.5 66,-85.5 -68,-85.5 -68,-85.5 -74,-85.5 -80,-79.5 -80,-73.5 -80,-73.5 -80,99.5 -80,99.5 -80,105.5 -74,111.5 -68,111.5"/>
<text text-anchor="middle" x="-1" y="-70.3" font-family="Times,serif" font-size="14.00">LessonVersionsController</text>
<polyline fill="none" stroke="black" points="-80,-62.5 78,-62.5 "/>
<text text-anchor="start" x="-72" y="-47.3" font-family="Times,serif" font-size="14.00">create</text>
<text text-anchor="start" x="-72" y="-32.3" font-family="Times,serif" font-size="14.00">edit</text>
<text text-anchor="start" x="-72" y="-17.3" font-family="Times,serif" font-size="14.00">index</text>
<text text-anchor="start" x="-72" y="-2.3" font-family="Times,serif" font-size="14.00">new</text>
<text text-anchor="start" x="-72" y="12.7" font-family="Times,serif" font-size="14.00">show</text>
<polyline fill="none" stroke="black" points="-80,20.5 78,20.5 "/>
<text text-anchor="start" x="-72" y="35.7" font-family="Times,serif" font-size="14.00">buildMediaContent</text>
<polyline fill="none" stroke="black" points="-80,43.5 78,43.5 "/>
<text text-anchor="start" x="-72" y="58.7" font-family="Times,serif" font-size="14.00">_layout</text>
<text text-anchor="start" x="-72" y="73.7" font-family="Times,serif" font-size="14.00">lesson_version_params</text>
<text text-anchor="start" x="-72" y="88.7" font-family="Times,serif" font-size="14.00">vimeo_content_params</text>
<text text-anchor="start" x="-72" y="103.7" font-family="Times,serif" font-size="14.00">youtube_content_params</text>
</g>
<!-- TopicsController -->
<g id="node9" class="node"><title>TopicsController</title>
<path fill="none" stroke="black" d="M-67.5,-369C-67.5,-369 17.5,-369 17.5,-369 23.5,-369 29.5,-375 29.5,-381 29.5,-381 29.5,-465 29.5,-465 29.5,-471 23.5,-477 17.5,-477 17.5,-477 -67.5,-477 -67.5,-477 -73.5,-477 -79.5,-471 -79.5,-465 -79.5,-465 -79.5,-381 -79.5,-381 -79.5,-375 -73.5,-369 -67.5,-369"/>
<text text-anchor="middle" x="-25" y="-461.8" font-family="Times,serif" font-size="14.00">TopicsController</text>
<polyline fill="none" stroke="black" points="-79.5,-454 29.5,-454 "/>
<text text-anchor="start" x="-71.5" y="-438.8" font-family="Times,serif" font-size="14.00">index</text>
<text text-anchor="start" x="-71.5" y="-423.8" font-family="Times,serif" font-size="14.00">show</text>
<polyline fill="none" stroke="black" points="-79.5,-416 29.5,-416 "/>
<polyline fill="none" stroke="black" points="-79.5,-392 29.5,-392 "/>
<text text-anchor="start" x="-71.5" y="-376.8" font-family="Times,serif" font-size="14.00">_layout</text>
</g>
<!-- Moderate::ProgramsController -->
<g id="node10" class="node"><title>Moderate::ProgramsController</title>
<path fill="none" stroke="black" d="M268.5,255.5C268.5,255.5 429.5,255.5 429.5,255.5 435.5,255.5 441.5,249.5 441.5,243.5 441.5,243.5 441.5,174.5 441.5,174.5 441.5,168.5 435.5,162.5 429.5,162.5 429.5,162.5 268.5,162.5 268.5,162.5 262.5,162.5 256.5,168.5 256.5,174.5 256.5,174.5 256.5,243.5 256.5,243.5 256.5,249.5 262.5,255.5 268.5,255.5"/>
<text text-anchor="middle" x="349" y="177.7" font-family="Times,serif" font-size="14.00">Moderate::ProgramsController</text>
<polyline fill="none" stroke="black" points="256.5,185.5 441.5,185.5 "/>
<text text-anchor="start" x="264.5" y="200.7" font-family="Times,serif" font-size="14.00">index</text>
<polyline fill="none" stroke="black" points="256.5,208.5 441.5,208.5 "/>
<polyline fill="none" stroke="black" points="256.5,232.5 441.5,232.5 "/>
<text text-anchor="start" x="264.5" y="247.7" font-family="Times,serif" font-size="14.00">_layout</text>
</g>
<!-- Moderate::TracksController -->
<g id="node11" class="node"><title>Moderate::TracksController</title>
<path fill="none" stroke="black" d="M284.5,-272.5C284.5,-272.5 429.5,-272.5 429.5,-272.5 435.5,-272.5 441.5,-278.5 441.5,-284.5 441.5,-284.5 441.5,-353.5 441.5,-353.5 441.5,-359.5 435.5,-365.5 429.5,-365.5 429.5,-365.5 284.5,-365.5 284.5,-365.5 278.5,-365.5 272.5,-359.5 272.5,-353.5 272.5,-353.5 272.5,-284.5 272.5,-284.5 272.5,-278.5 278.5,-272.5 284.5,-272.5"/>
<text text-anchor="middle" x="357" y="-350.3" font-family="Times,serif" font-size="14.00">Moderate::TracksController</text>
<polyline fill="none" stroke="black" points="272.5,-342.5 441.5,-342.5 "/>
<text text-anchor="start" x="280.5" y="-327.3" font-family="Times,serif" font-size="14.00">index</text>
<polyline fill="none" stroke="black" points="272.5,-319.5 441.5,-319.5 "/>
<polyline fill="none" stroke="black" points="272.5,-295.5 441.5,-295.5 "/>
<text text-anchor="start" x="280.5" y="-280.3" font-family="Times,serif" font-size="14.00">_layout</text>
</g>
<!-- Moderate::CoursesController -->
<g id="node12" class="node"><title>Moderate::CoursesController</title>
<path fill="none" stroke="black" d="M-276,-48.5C-276,-48.5 -124,-48.5 -124,-48.5 -118,-48.5 -112,-54.5 -112,-60.5 -112,-60.5 -112,-129.5 -112,-129.5 -112,-135.5 -118,-141.5 -124,-141.5 -124,-141.5 -276,-141.5 -276,-141.5 -282,-141.5 -288,-135.5 -288,-129.5 -288,-129.5 -288,-60.5 -288,-60.5 -288,-54.5 -282,-48.5 -276,-48.5"/>
<text text-anchor="middle" x="-200" y="-126.3" font-family="Times,serif" font-size="14.00">Moderate::CoursesController</text>
<polyline fill="none" stroke="black" points="-288,-118.5 -112,-118.5 "/>
<text text-anchor="start" x="-280" y="-103.3" font-family="Times,serif" font-size="14.00">index</text>
<polyline fill="none" stroke="black" points="-288,-95.5 -112,-95.5 "/>
<polyline fill="none" stroke="black" points="-288,-71.5 -112,-71.5 "/>
<text text-anchor="start" x="-280" y="-56.3" font-family="Times,serif" font-size="14.00">_layout</text>
</g>
<!-- Moderate::LessonsController -->
<g id="node13" class="node"><title>Moderate::LessonsController</title>
<path fill="none" stroke="black" d="M-276,79.5C-276,79.5 -124,79.5 -124,79.5 -118,79.5 -112,73.5 -112,67.5 -112,67.5 -112,-1.5 -112,-1.5 -112,-7.5 -118,-13.5 -124,-13.5 -124,-13.5 -276,-13.5 -276,-13.5 -282,-13.5 -288,-7.5 -288,-1.5 -288,-1.5 -288,67.5 -288,67.5 -288,73.5 -282,79.5 -276,79.5"/>
<text text-anchor="middle" x="-200" y="1.7" font-family="Times,serif" font-size="14.00">Moderate::LessonsController</text>
<polyline fill="none" stroke="black" points="-288,9.5 -112,9.5 "/>
<text text-anchor="start" x="-280" y="24.7" font-family="Times,serif" font-size="14.00">index</text>
<polyline fill="none" stroke="black" points="-288,32.5 -112,32.5 "/>
<polyline fill="none" stroke="black" points="-288,56.5 -112,56.5 "/>
<text text-anchor="start" x="-280" y="71.7" font-family="Times,serif" font-size="14.00">_layout</text>
</g>
<!-- Moderate::LessonVersionsController -->
<g id="node14" class="node"><title>Moderate::LessonVersionsController</title>
<path fill="none" stroke="black" d="M12,239.5C12,239.5 206,239.5 206,239.5 212,239.5 218,233.5 218,227.5 218,227.5 218,158.5 218,158.5 218,152.5 212,146.5 206,146.5 206,146.5 12,146.5 12,146.5 6,146.5 0,152.5 0,158.5 0,158.5 0,227.5 0,227.5 0,233.5 6,239.5 12,239.5"/>
<text text-anchor="middle" x="109" y="161.7" font-family="Times,serif" font-size="14.00">Moderate::LessonVersionsController</text>
<polyline fill="none" stroke="black" points="0,169.5 218,169.5 "/>
<text text-anchor="start" x="8" y="184.7" font-family="Times,serif" font-size="14.00">index</text>
<polyline fill="none" stroke="black" points="0,192.5 218,192.5 "/>
<polyline fill="none" stroke="black" points="0,216.5 218,216.5 "/>
<text text-anchor="start" x="8" y="231.7" font-family="Times,serif" font-size="14.00">_layout</text>
</g>
<!-- Moderate::ModerationsController -->
<g id="node15" class="node"><title>Moderate::ModerationsController</title>
<path fill="none" stroke="black" d="M124.5,-112.5C124.5,-112.5 301.5,-112.5 301.5,-112.5 307.5,-112.5 313.5,-118.5 313.5,-124.5 313.5,-124.5 313.5,-223.5 313.5,-223.5 313.5,-229.5 307.5,-235.5 301.5,-235.5 301.5,-235.5 124.5,-235.5 124.5,-235.5 118.5,-235.5 112.5,-229.5 112.5,-223.5 112.5,-223.5 112.5,-124.5 112.5,-124.5 112.5,-118.5 118.5,-112.5 124.5,-112.5"/>
<text text-anchor="middle" x="213" y="-220.3" font-family="Times,serif" font-size="14.00">Moderate::ModerationsController</text>
<polyline fill="none" stroke="black" points="112.5,-212.5 313.5,-212.5 "/>
<text text-anchor="start" x="120.5" y="-197.3" font-family="Times,serif" font-size="14.00">activities</text>
<text text-anchor="start" x="120.5" y="-182.3" font-family="Times,serif" font-size="14.00">dashboard</text>
<text text-anchor="start" x="120.5" y="-167.3" font-family="Times,serif" font-size="14.00">guides</text>
<polyline fill="none" stroke="black" points="112.5,-159.5 313.5,-159.5 "/>
<polyline fill="none" stroke="black" points="112.5,-135.5 313.5,-135.5 "/>
<text text-anchor="start" x="120.5" y="-120.3" font-family="Times,serif" font-size="14.00">_layout</text>
</g>
<!-- Moderate::TopicsController -->
<g id="node16" class="node"><title>Moderate::TopicsController</title>
<path fill="none" stroke="black" d="M76.5,-336.5C76.5,-336.5 221.5,-336.5 221.5,-336.5 227.5,-336.5 233.5,-342.5 233.5,-348.5 233.5,-348.5 233.5,-417.5 233.5,-417.5 233.5,-423.5 227.5,-429.5 221.5,-429.5 221.5,-429.5 76.5,-429.5 76.5,-429.5 70.5,-429.5 64.5,-423.5 64.5,-417.5 64.5,-417.5 64.5,-348.5 64.5,-348.5 64.5,-342.5 70.5,-336.5 76.5,-336.5"/>
<text text-anchor="middle" x="149" y="-414.3" font-family="Times,serif" font-size="14.00">Moderate::TopicsController</text>
<polyline fill="none" stroke="black" points="64.5,-406.5 233.5,-406.5 "/>
<text text-anchor="start" x="72.5" y="-391.3" font-family="Times,serif" font-size="14.00">index</text>
<polyline fill="none" stroke="black" points="64.5,-383.5 233.5,-383.5 "/>
<polyline fill="none" stroke="black" points="64.5,-359.5 233.5,-359.5 "/>
<text text-anchor="start" x="72.5" y="-344.3" font-family="Times,serif" font-size="14.00">_layout</text>
</g>
<!-- Moderate::TeamsController -->
<g id="node17" class="node"><title>Moderate::TeamsController</title>
<path fill="none" stroke="black" d="M364.5,-16.5C364.5,-16.5 509.5,-16.5 509.5,-16.5 515.5,-16.5 521.5,-22.5 521.5,-28.5 521.5,-28.5 521.5,-97.5 521.5,-97.5 521.5,-103.5 515.5,-109.5 509.5,-109.5 509.5,-109.5 364.5,-109.5 364.5,-109.5 358.5,-109.5 352.5,-103.5 352.5,-97.5 352.5,-97.5 352.5,-28.5 352.5,-28.5 352.5,-22.5 358.5,-16.5 364.5,-16.5"/>
<text text-anchor="middle" x="437" y="-94.3" font-family="Times,serif" font-size="14.00">Moderate::TeamsController</text>
<polyline fill="none" stroke="black" points="352.5,-86.5 521.5,-86.5 "/>
<text text-anchor="start" x="360.5" y="-71.3" font-family="Times,serif" font-size="14.00">index</text>
<polyline fill="none" stroke="black" points="352.5,-63.5 521.5,-63.5 "/>
<polyline fill="none" stroke="black" points="352.5,-39.5 521.5,-39.5 "/>
<text text-anchor="start" x="360.5" y="-24.3" font-family="Times,serif" font-size="14.00">_layout</text>
</g>
<!-- WelcomeController -->
<g id="node18" class="node"><title>WelcomeController</title>
<path fill="none" stroke="black" d="M-323.5,-337C-323.5,-337 -222.5,-337 -222.5,-337 -216.5,-337 -210.5,-343 -210.5,-349 -210.5,-349 -210.5,-463 -210.5,-463 -210.5,-469 -216.5,-475 -222.5,-475 -222.5,-475 -323.5,-475 -323.5,-475 -329.5,-475 -335.5,-469 -335.5,-463 -335.5,-463 -335.5,-349 -335.5,-349 -335.5,-343 -329.5,-337 -323.5,-337"/>
<text text-anchor="middle" x="-273" y="-459.8" font-family="Times,serif" font-size="14.00">WelcomeController</text>
<polyline fill="none" stroke="black" points="-335.5,-452 -210.5,-452 "/>
<text text-anchor="start" x="-327.5" y="-436.8" font-family="Times,serif" font-size="14.00">about</text>
<text text-anchor="start" x="-327.5" y="-421.8" font-family="Times,serif" font-size="14.00">contribute</text>
<text text-anchor="start" x="-327.5" y="-406.8" font-family="Times,serif" font-size="14.00">index</text>
<text text-anchor="start" x="-327.5" y="-391.8" font-family="Times,serif" font-size="14.00">library</text>
<polyline fill="none" stroke="black" points="-335.5,-384 -210.5,-384 "/>
<polyline fill="none" stroke="black" points="-335.5,-360 -210.5,-360 "/>
<text text-anchor="start" x="-327.5" y="-344.8" font-family="Times,serif" font-size="14.00">_layout</text>
</g>
<!-- TeamsController -->
<g id="node19" class="node"><title>TeamsController</title>
<path fill="none" stroke="black" d="M-355.5,367C-355.5,367 -270.5,367 -270.5,367 -264.5,367 -258.5,361 -258.5,355 -258.5,355 -258.5,271 -258.5,271 -258.5,265 -264.5,259 -270.5,259 -270.5,259 -355.5,259 -355.5,259 -361.5,259 -367.5,265 -367.5,271 -367.5,271 -367.5,355 -367.5,355 -367.5,361 -361.5,367 -355.5,367"/>
<text text-anchor="middle" x="-313" y="274.2" font-family="Times,serif" font-size="14.00">TeamsController</text>
<polyline fill="none" stroke="black" points="-367.5,282 -258.5,282 "/>
<text text-anchor="start" x="-359.5" y="297.2" font-family="Times,serif" font-size="14.00">index</text>
<text text-anchor="start" x="-359.5" y="312.2" font-family="Times,serif" font-size="14.00">show</text>
<polyline fill="none" stroke="black" points="-367.5,320 -258.5,320 "/>
<polyline fill="none" stroke="black" points="-367.5,344 -258.5,344 "/>
<text text-anchor="start" x="-359.5" y="359.2" font-family="Times,serif" font-size="14.00">_layout</text>
</g>
<!-- ApplicationController -->
<g id="node20" class="node"><title>ApplicationController</title>
<path fill="none" stroke="black" d="M364,-145C364,-145 476,-145 476,-145 482,-145 488,-151 488,-157 488,-157 488,-227 488,-227 488,-233 482,-239 476,-239 476,-239 364,-239 364,-239 358,-239 352,-233 352,-227 352,-227 352,-157 352,-157 352,-151 358,-145 364,-145"/>
<text text-anchor="middle" x="420" y="-223.8" font-family="Times,serif" font-size="14.00">ApplicationController</text>
<polyline fill="none" stroke="black" points="352,-216 488,-216 "/>
<polyline fill="none" stroke="black" points="352,-192 488,-192 "/>
<polyline fill="none" stroke="black" points="352,-168 488,-168 "/>
<text text-anchor="start" x="360" y="-152.8" font-family="Times,serif" font-size="14.00">_layout</text>
</g>
</g>
</svg>
