<?xml version="1.0" encoding="UTF-8" standalone="no"?>
<!DOCTYPE svg PUBLIC "-//W3C//DTD SVG 1.1//EN"
 "http://www.w3.org/Graphics/SVG/1.1/DTD/svg11.dtd">
<!-- Generated by graphviz version 2.38.0 (20140413.2041)
 -->
<!-- Title: models_diagram Pages: 1 -->
<svg width="2036pt" height="1109pt"
 viewBox="0.00 0.00 2035.89 1109.00" xmlns="http://www.w3.org/2000/svg" xmlns:xlink="http://www.w3.org/1999/xlink">
<g id="graph0" class="graph" transform="scale(1 1) rotate(0) translate(4 1105)">
<title>models_diagram</title>
<polygon fill="none" stroke="none" points="-4,4 -4,-1105 2031.89,-1105 2031.89,4 -4,4"/>
<!-- _diagram_info -->
<g id="node1" class="node"><title>_diagram_info</title>
<text text-anchor="start" x="233.39" y="-1034.6" font-family="Times,serif" font-size="13.00">Models diagram</text>
<text text-anchor="start" x="233.39" y="-1020.6" font-family="Times,serif" font-size="13.00">Date: Aug 23 2016 &#45; 14:34</text>
<text text-anchor="start" x="233.39" y="-1006.6" font-family="Times,serif" font-size="13.00">Migration version: 20160802040730</text>
<text text-anchor="start" x="233.39" y="-992.6" font-family="Times,serif" font-size="13.00">Generated by RailRoady 1.5.1</text>
<text text-anchor="start" x="233.39" y="-978.6" font-family="Times,serif" font-size="13.00">http://railroady.prestonlee.com</text>
</g>
<!-- Contribution -->
<g id="node2" class="node"><title>Contribution</title>
<path fill="none" stroke="black" d="M239.89,-0.5C239.89,-0.5 376.89,-0.5 376.89,-0.5 382.89,-0.5 388.89,-6.5 388.89,-12.5 388.89,-12.5 388.89,-124.5 388.89,-124.5 388.89,-130.5 382.89,-136.5 376.89,-136.5 376.89,-136.5 239.89,-136.5 239.89,-136.5 233.89,-136.5 227.89,-130.5 227.89,-124.5 227.89,-124.5 227.89,-12.5 227.89,-12.5 227.89,-6.5 233.89,-0.5 239.89,-0.5"/>
<text text-anchor="middle" x="308.39" y="-121.3" font-family="Times,serif" font-size="14.00">Contribution</text>
<polyline fill="none" stroke="black" points="227.89,-113.5 388.89,-113.5 "/>
<text text-anchor="start" x="235.89" y="-98.3" font-family="Times,serif" font-size="14.00">id :INTEGER</text>
<text text-anchor="start" x="235.89" y="-83.3" font-family="Times,serif" font-size="14.00">contributor_id :integer</text>
<text text-anchor="start" x="235.89" y="-68.3" font-family="Times,serif" font-size="14.00">contributor_type :varchar</text>
<text text-anchor="start" x="235.89" y="-53.3" font-family="Times,serif" font-size="14.00">contribution_id :integer</text>
<text text-anchor="start" x="235.89" y="-38.3" font-family="Times,serif" font-size="14.00">contribution_type :varchar</text>
<text text-anchor="start" x="235.89" y="-23.3" font-family="Times,serif" font-size="14.00">created_at :datetime</text>
<text text-anchor="start" x="235.89" y="-8.3" font-family="Times,serif" font-size="14.00">updated_at :datetime</text>
</g>
<!-- Topic -->
<g id="node3" class="node"><title>Topic</title>
<path fill="none" stroke="black" d="M469.89,-934.5C469.89,-934.5 602.89,-934.5 602.89,-934.5 608.89,-934.5 614.89,-940.5 614.89,-946.5 614.89,-946.5 614.89,-1073.5 614.89,-1073.5 614.89,-1079.5 608.89,-1085.5 602.89,-1085.5 602.89,-1085.5 469.89,-1085.5 469.89,-1085.5 463.89,-1085.5 457.89,-1079.5 457.89,-1073.5 457.89,-1073.5 457.89,-946.5 457.89,-946.5 457.89,-940.5 463.89,-934.5 469.89,-934.5"/>
<text text-anchor="middle" x="536.39" y="-1070.3" font-family="Times,serif" font-size="14.00">Topic</text>
<polyline fill="none" stroke="black" points="457.89,-1062.5 614.89,-1062.5 "/>
<text text-anchor="start" x="465.89" y="-1047.3" font-family="Times,serif" font-size="14.00">id :INTEGER</text>
<text text-anchor="start" x="465.89" y="-1032.3" font-family="Times,serif" font-size="14.00">name :varchar</text>
<text text-anchor="start" x="465.89" y="-1017.3" font-family="Times,serif" font-size="14.00">description :text</text>
<text text-anchor="start" x="465.89" y="-1002.3" font-family="Times,serif" font-size="14.00">color :varchar</text>
<text text-anchor="start" x="465.89" y="-987.3" font-family="Times,serif" font-size="14.00">approved :boolean</text>
<text text-anchor="start" x="465.89" y="-972.3" font-family="Times,serif" font-size="14.00">cover_image_url :varchar</text>
<text text-anchor="start" x="465.89" y="-957.3" font-family="Times,serif" font-size="14.00">created_at :datetime</text>
<text text-anchor="start" x="465.89" y="-942.3" font-family="Times,serif" font-size="14.00">updated_at :datetime</text>
</g>
<!-- Track -->
<g id="node4" class="node"><title>Track</title>
<path fill="none" stroke="black" d="M225.89,-745.5C225.89,-745.5 332.89,-745.5 332.89,-745.5 338.89,-745.5 344.89,-751.5 344.89,-757.5 344.89,-757.5 344.89,-869.5 344.89,-869.5 344.89,-875.5 338.89,-881.5 332.89,-881.5 332.89,-881.5 225.89,-881.5 225.89,-881.5 219.89,-881.5 213.89,-875.5 213.89,-869.5 213.89,-869.5 213.89,-757.5 213.89,-757.5 213.89,-751.5 219.89,-745.5 225.89,-745.5"/>
<text text-anchor="middle" x="279.39" y="-866.3" font-family="Times,serif" font-size="14.00">Track</text>
<polyline fill="none" stroke="black" points="213.89,-858.5 344.89,-858.5 "/>
<text text-anchor="start" x="221.89" y="-843.3" font-family="Times,serif" font-size="14.00">id :INTEGER</text>
<text text-anchor="start" x="221.89" y="-828.3" font-family="Times,serif" font-size="14.00">name :varchar</text>
<text text-anchor="start" x="221.89" y="-813.3" font-family="Times,serif" font-size="14.00">description :text</text>
<text text-anchor="start" x="221.89" y="-798.3" font-family="Times,serif" font-size="14.00">approved :boolean</text>
<text text-anchor="start" x="221.89" y="-783.3" font-family="Times,serif" font-size="14.00">color :varchar</text>
<text text-anchor="start" x="221.89" y="-768.3" font-family="Times,serif" font-size="14.00">created_at :datetime</text>
<text text-anchor="start" x="221.89" y="-753.3" font-family="Times,serif" font-size="14.00">updated_at :datetime</text>
</g>
<!-- Topic&#45;&gt;Track -->
<g id="edge3" class="edge"><title>Topic&#45;&gt;Track</title>
<path fill="none" stroke="#cf0e8a" d="M460.058,-927.815C456.21,-924.724 452.313,-921.768 448.39,-919 432.792,-907.993 426.054,-910.316 409.39,-901 390.885,-890.655 371.555,-878.558 353.63,-866.746"/>
<polygon fill="#cf0e8a" stroke="#cf0e8a" points="460.196,-927.93 464.997,-937.789 464.037,-931.131 467.878,-934.332 467.878,-934.332 467.878,-934.332 464.037,-931.131 470.759,-930.875 460.196,-927.93 460.196,-927.93"/>
<polygon fill="#cf0e8a" stroke="#cf0e8a" points="353.281,-866.514 347.444,-857.231 349.117,-863.746 344.953,-860.978 344.953,-860.978 344.953,-860.978 349.117,-863.746 342.462,-864.726 353.281,-866.514 353.281,-866.514"/>
</g>
<!-- Lesson -->
<g id="node5" class="node"><title>Lesson</title>
<path fill="none" stroke="black" d="M469.39,-760.5C469.39,-760.5 603.39,-760.5 603.39,-760.5 609.39,-760.5 615.39,-766.5 615.39,-772.5 615.39,-772.5 615.39,-854.5 615.39,-854.5 615.39,-860.5 609.39,-866.5 603.39,-866.5 603.39,-866.5 469.39,-866.5 469.39,-866.5 463.39,-866.5 457.39,-860.5 457.39,-854.5 457.39,-854.5 457.39,-772.5 457.39,-772.5 457.39,-766.5 463.39,-760.5 469.39,-760.5"/>
<text text-anchor="middle" x="536.39" y="-851.3" font-family="Times,serif" font-size="14.00">Lesson</text>
<polyline fill="none" stroke="black" points="457.39,-843.5 615.39,-843.5 "/>
<text text-anchor="start" x="465.39" y="-828.3" font-family="Times,serif" font-size="14.00">id :INTEGER</text>
<text text-anchor="start" x="465.39" y="-813.3" font-family="Times,serif" font-size="14.00">active_version_id :integer</text>
<text text-anchor="start" x="465.39" y="-798.3" font-family="Times,serif" font-size="14.00">created_at :datetime</text>
<text text-anchor="start" x="465.39" y="-783.3" font-family="Times,serif" font-size="14.00">updated_at :datetime</text>
<text text-anchor="start" x="465.39" y="-768.3" font-family="Times,serif" font-size="14.00">approved :boolean</text>
</g>
<!-- Topic&#45;&gt;Lesson -->
<g id="edge5" class="edge"><title>Topic&#45;&gt;Lesson</title>
<path fill="none" stroke="#90d7d8" d="M536.39,-924.195C536.39,-908.281 536.39,-891.915 536.39,-876.84"/>
<polygon fill="#90d7d8" stroke="#90d7d8" points="536.39,-924.357 531.89,-934.357 536.39,-929.357 536.39,-934.357 536.39,-934.357 536.39,-934.357 536.39,-929.357 540.89,-934.358 536.39,-924.357 536.39,-924.357"/>
<polygon fill="#90d7d8" stroke="#90d7d8" points="536.39,-876.63 540.89,-866.63 536.39,-871.63 536.39,-866.63 536.39,-866.63 536.39,-866.63 536.39,-871.63 531.89,-866.63 536.39,-876.63 536.39,-876.63"/>
</g>
<!-- Course -->
<g id="node17" class="node"><title>Course</title>
<path fill="none" stroke="black" d="M363.89,-557.5C363.89,-557.5 470.89,-557.5 470.89,-557.5 476.89,-557.5 482.89,-563.5 482.89,-569.5 482.89,-569.5 482.89,-681.5 482.89,-681.5 482.89,-687.5 476.89,-693.5 470.89,-693.5 470.89,-693.5 363.89,-693.5 363.89,-693.5 357.89,-693.5 351.89,-687.5 351.89,-681.5 351.89,-681.5 351.89,-569.5 351.89,-569.5 351.89,-563.5 357.89,-557.5 363.89,-557.5"/>
<text text-anchor="middle" x="417.39" y="-678.3" font-family="Times,serif" font-size="14.00">Course</text>
<polyline fill="none" stroke="black" points="351.89,-670.5 482.89,-670.5 "/>
<text text-anchor="start" x="359.89" y="-655.3" font-family="Times,serif" font-size="14.00">id :INTEGER</text>
<text text-anchor="start" x="359.89" y="-640.3" font-family="Times,serif" font-size="14.00">name :varchar</text>
<text text-anchor="start" x="359.89" y="-625.3" font-family="Times,serif" font-size="14.00">description :text</text>
<text text-anchor="start" x="359.89" y="-610.3" font-family="Times,serif" font-size="14.00">approved :boolean</text>
<text text-anchor="start" x="359.89" y="-595.3" font-family="Times,serif" font-size="14.00">color :varchar</text>
<text text-anchor="start" x="359.89" y="-580.3" font-family="Times,serif" font-size="14.00">created_at :datetime</text>
<text text-anchor="start" x="359.89" y="-565.3" font-family="Times,serif" font-size="14.00">updated_at :datetime</text>
</g>
<!-- Topic&#45;&gt;Course -->
<g id="edge2" class="edge"><title>Topic&#45;&gt;Course</title>
<path fill="none" stroke="#b794b6" d="M470.522,-925.85C461.885,-911.825 454.075,-896.95 448.39,-882 426.654,-824.833 419.299,-755.757 417.161,-703.849"/>
<polygon fill="#b794b6" stroke="#b794b6" points="470.633,-926.024 472.197,-936.878 473.314,-930.245 475.996,-934.465 475.996,-934.465 475.996,-934.465 473.314,-930.245 479.794,-932.052 470.633,-926.024 470.633,-926.024"/>
<polygon fill="#b794b6" stroke="#b794b6" points="417.155,-703.699 421.297,-693.545 416.978,-698.702 416.8,-693.705 416.8,-693.705 416.8,-693.705 416.978,-698.702 412.303,-693.865 417.155,-703.699 417.155,-703.699"/>
</g>
<!-- TopicItem -->
<g id="node22" class="node"><title>TopicItem</title>
<path fill="none" stroke="black" d="M626.39,-279.5C626.39,-279.5 746.39,-279.5 746.39,-279.5 752.39,-279.5 758.39,-285.5 758.39,-291.5 758.39,-291.5 758.39,-388.5 758.39,-388.5 758.39,-394.5 752.39,-400.5 746.39,-400.5 746.39,-400.5 626.39,-400.5 626.39,-400.5 620.39,-400.5 614.39,-394.5 614.39,-388.5 614.39,-388.5 614.39,-291.5 614.39,-291.5 614.39,-285.5 620.39,-279.5 626.39,-279.5"/>
<text text-anchor="middle" x="686.39" y="-385.3" font-family="Times,serif" font-size="14.00">TopicItem</text>
<polyline fill="none" stroke="black" points="614.39,-377.5 758.39,-377.5 "/>
<text text-anchor="start" x="622.39" y="-362.3" font-family="Times,serif" font-size="14.00">id :INTEGER</text>
<text text-anchor="start" x="622.39" y="-347.3" font-family="Times,serif" font-size="14.00">topic_id :integer</text>
<text text-anchor="start" x="622.39" y="-332.3" font-family="Times,serif" font-size="14.00">topicable_id :integer</text>
<text text-anchor="start" x="622.39" y="-317.3" font-family="Times,serif" font-size="14.00">topicable_type :varchar</text>
<text text-anchor="start" x="622.39" y="-302.3" font-family="Times,serif" font-size="14.00">created_at :datetime</text>
<text text-anchor="start" x="622.39" y="-287.3" font-family="Times,serif" font-size="14.00">updated_at :datetime</text>
</g>
<!-- Topic&#45;&gt;TopicItem -->
<g id="edge1" class="edge"><title>Topic&#45;&gt;TopicItem</title>
<path fill="none" stroke="#361ed7" d="M613.635,-927.999C629.972,-909.734 644.168,-892.624 650.39,-882 694.997,-805.836 699.974,-781.079 714.39,-694 730.516,-596.592 715.389,-482.473 701.875,-410.946"/>
<ellipse fill="none" stroke="#361ed7" cx="610.698" cy="-931.258" rx="4.00002" ry="4.00002"/>
<polygon fill="#361ed7" stroke="#361ed7" points="701.794,-410.527 704.315,-399.855 700.846,-405.618 699.897,-400.709 699.897,-400.709 699.897,-400.709 700.846,-405.618 695.479,-401.563 701.794,-410.527 701.794,-410.527"/>
</g>
<!-- LessonVersion -->
<g id="node23" class="node"><title>LessonVersion</title>
<ellipse fill="none" stroke="black" cx="641.39" cy="-625.5" rx="63.8893" ry="18"/>
<text text-anchor="middle" x="641.39" y="-621.8" font-family="Times,serif" font-size="14.00">LessonVersion</text>
</g>
<!-- Topic&#45;&gt;LessonVersion -->
<g id="edge4" class="edge"><title>Topic&#45;&gt;LessonVersion</title>
<path fill="none" stroke="#91a95a" d="M603.156,-925.819C611.627,-911.846 619.15,-896.994 624.39,-882 652.079,-802.769 648.174,-701.441 644.215,-653.699"/>
<polygon fill="#91a95a" stroke="#91a95a" points="603.087,-925.929 593.96,-932.008 600.429,-930.165 597.772,-934.4 597.772,-934.4 597.772,-934.4 600.429,-930.165 601.583,-936.792 603.087,-925.929 603.087,-925.929"/>
<polygon fill="#91a95a" stroke="#91a95a" points="644.199,-653.514 647.786,-643.151 643.751,-648.534 643.304,-643.554 643.304,-643.554 643.304,-643.554 643.751,-648.534 638.822,-643.957 644.199,-653.514 644.199,-653.514"/>
</g>
<!-- Track&#45;&gt;Contribution -->
<g id="edge9" class="edge"><title>Track&#45;&gt;Contribution</title>
<path fill="none" stroke="#554d27" d="M208.129,-745.612C152.62,-688.199 80.016,-600.028 49.3902,-506 3.693,-365.699 -33.1508,-296.31 49.3902,-174 86.7605,-118.625 158.927,-92.5859 217.611,-80.3458"/>
<ellipse fill="none" stroke="#554d27" cx="210.994" cy="-748.552" rx="4.00002" ry="4.00002"/>
<polygon fill="#554d27" stroke="#554d27" points="217.841,-80.3002 228.525,-82.7713 222.746,-79.3287 227.651,-78.3571 227.651,-78.3571 227.651,-78.3571 222.746,-79.3287 226.776,-73.9428 217.841,-80.3002 217.841,-80.3002"/>
</g>
<!-- User -->
<g id="node11" class="node"><title>User</title>
<path fill="none" stroke="black" d="M220.39,-174.5C220.39,-174.5 396.39,-174.5 396.39,-174.5 402.39,-174.5 408.39,-180.5 408.39,-186.5 408.39,-186.5 408.39,-493.5 408.39,-493.5 408.39,-499.5 402.39,-505.5 396.39,-505.5 396.39,-505.5 220.39,-505.5 220.39,-505.5 214.39,-505.5 208.39,-499.5 208.39,-493.5 208.39,-493.5 208.39,-186.5 208.39,-186.5 208.39,-180.5 214.39,-174.5 220.39,-174.5"/>
<text text-anchor="middle" x="308.39" y="-490.3" font-family="Times,serif" font-size="14.00">User</text>
<polyline fill="none" stroke="black" points="208.39,-482.5 408.39,-482.5 "/>
<text text-anchor="start" x="216.39" y="-467.3" font-family="Times,serif" font-size="14.00">id :INTEGER</text>
<text text-anchor="start" x="216.39" y="-452.3" font-family="Times,serif" font-size="14.00">email :varchar</text>
<text text-anchor="start" x="216.39" y="-437.3" font-family="Times,serif" font-size="14.00">encrypted_password :varchar</text>
<text text-anchor="start" x="216.39" y="-422.3" font-family="Times,serif" font-size="14.00">reset_password_token :varchar</text>
<text text-anchor="start" x="216.39" y="-407.3" font-family="Times,serif" font-size="14.00">reset_password_sent_at :datetime</text>
<text text-anchor="start" x="216.39" y="-392.3" font-family="Times,serif" font-size="14.00">remember_created_at :datetime</text>
<text text-anchor="start" x="216.39" y="-377.3" font-family="Times,serif" font-size="14.00">sign_in_count :integer</text>
<text text-anchor="start" x="216.39" y="-362.3" font-family="Times,serif" font-size="14.00">current_sign_in_at :datetime</text>
<text text-anchor="start" x="216.39" y="-347.3" font-family="Times,serif" font-size="14.00">last_sign_in_at :datetime</text>
<text text-anchor="start" x="216.39" y="-332.3" font-family="Times,serif" font-size="14.00">current_sign_in_ip :varchar</text>
<text text-anchor="start" x="216.39" y="-317.3" font-family="Times,serif" font-size="14.00">last_sign_in_ip :varchar</text>
<text text-anchor="start" x="216.39" y="-302.3" font-family="Times,serif" font-size="14.00">confirmation_token :varchar</text>
<text text-anchor="start" x="216.39" y="-287.3" font-family="Times,serif" font-size="14.00">confirmed_at :datetime</text>
<text text-anchor="start" x="216.39" y="-272.3" font-family="Times,serif" font-size="14.00">confirmation_sent_at :datetime</text>
<text text-anchor="start" x="216.39" y="-257.3" font-family="Times,serif" font-size="14.00">unconfirmed_email :varchar</text>
<text text-anchor="start" x="216.39" y="-242.3" font-family="Times,serif" font-size="14.00">failed_attempts :integer</text>
<text text-anchor="start" x="216.39" y="-227.3" font-family="Times,serif" font-size="14.00">unlock_token :varchar</text>
<text text-anchor="start" x="216.39" y="-212.3" font-family="Times,serif" font-size="14.00">locked_at :datetime</text>
<text text-anchor="start" x="216.39" y="-197.3" font-family="Times,serif" font-size="14.00">created_at :datetime</text>
<text text-anchor="start" x="216.39" y="-182.3" font-family="Times,serif" font-size="14.00">updated_at :datetime</text>
</g>
<!-- Track&#45;&gt;User -->
<g id="edge10" class="edge"><title>Track&#45;&gt;User</title>
<path fill="none" stroke="#8b1c7a" d="M255.475,-735.57C252.114,-721.852 249.194,-707.599 247.39,-694 239.384,-633.64 239.037,-617.313 247.39,-557 249.261,-543.489 251.761,-529.635 254.683,-515.783"/>
<polygon fill="#8b1c7a" stroke="#8b1c7a" points="255.523,-735.757 253.63,-746.558 256.757,-740.602 257.991,-745.448 257.991,-745.448 257.991,-745.448 256.757,-740.602 262.352,-744.337 255.523,-735.757 255.523,-735.757"/>
<polygon fill="#8b1c7a" stroke="#8b1c7a" points="254.751,-515.473 261.279,-506.662 255.817,-510.588 256.882,-505.703 256.882,-505.703 256.882,-505.703 255.817,-510.588 252.486,-504.743 254.751,-515.473 254.751,-515.473"/>
<text text-anchor="middle" x="294.89" y="-621.8" font-family="Times,serif" font-size="14.00">user_contributors</text>
</g>
<!-- Track&#45;&gt;Course -->
<g id="edge7" class="edge"><title>Track&#45;&gt;Course</title>
<path fill="none" stroke="#1cd911" d="M335.433,-736.964C344.014,-725.398 352.873,-713.458 361.453,-701.894"/>
<polygon fill="#1cd911" stroke="#1cd911" points="335.17,-737.319 325.597,-742.668 332.191,-741.334 329.211,-745.35 329.211,-745.35 329.211,-745.35 332.191,-741.334 332.825,-748.031 335.17,-737.319 335.17,-737.319"/>
<polygon fill="#1cd911" stroke="#1cd911" points="361.684,-701.583 371.256,-696.233 364.663,-697.567 367.642,-693.552 367.642,-693.552 367.642,-693.552 364.663,-697.567 364.028,-690.87 361.684,-701.583 361.684,-701.583"/>
</g>
<!-- TrackCourse -->
<g id="node20" class="node"><title>TrackCourse</title>
<path fill="none" stroke="black" d="M70.8902,-279.5C70.8902,-279.5 177.89,-279.5 177.89,-279.5 183.89,-279.5 189.89,-285.5 189.89,-291.5 189.89,-291.5 189.89,-388.5 189.89,-388.5 189.89,-394.5 183.89,-400.5 177.89,-400.5 177.89,-400.5 70.8902,-400.5 70.8902,-400.5 64.8902,-400.5 58.8902,-394.5 58.8902,-388.5 58.8902,-388.5 58.8902,-291.5 58.8902,-291.5 58.8902,-285.5 64.8902,-279.5 70.8902,-279.5"/>
<text text-anchor="middle" x="124.39" y="-385.3" font-family="Times,serif" font-size="14.00">TrackCourse</text>
<polyline fill="none" stroke="black" points="58.8902,-377.5 189.89,-377.5 "/>
<text text-anchor="start" x="66.8902" y="-362.3" font-family="Times,serif" font-size="14.00">id :INTEGER</text>
<text text-anchor="start" x="66.8902" y="-347.3" font-family="Times,serif" font-size="14.00">position :integer</text>
<text text-anchor="start" x="66.8902" y="-332.3" font-family="Times,serif" font-size="14.00">track_id :integer</text>
<text text-anchor="start" x="66.8902" y="-317.3" font-family="Times,serif" font-size="14.00">course_id :integer</text>
<text text-anchor="start" x="66.8902" y="-302.3" font-family="Times,serif" font-size="14.00">created_at :datetime</text>
<text text-anchor="start" x="66.8902" y="-287.3" font-family="Times,serif" font-size="14.00">updated_at :datetime</text>
</g>
<!-- Track&#45;&gt;TrackCourse -->
<g id="edge6" class="edge"><title>Track&#45;&gt;TrackCourse</title>
<path fill="none" stroke="#94708a" d="M250.277,-737.876C248.943,-734.206 247.641,-730.566 246.39,-727 207.865,-617.127 168.111,-487.811 144.852,-410.228"/>
<ellipse fill="none" stroke="#94708a" cx="251.674" cy="-741.682" rx="4.00001" ry="4.00001"/>
<polygon fill="#94708a" stroke="#94708a" points="144.826,-410.143 146.27,-399.273 143.393,-405.353 141.959,-400.563 141.959,-400.563 141.959,-400.563 143.393,-405.353 137.648,-401.853 144.826,-410.143 144.826,-410.143"/>
</g>
<!-- Track&#45;&gt;TopicItem -->
<g id="edge8" class="edge"><title>Track&#45;&gt;TopicItem</title>
<path fill="none" stroke="#745651" d="M352.819,-783.636C396.963,-763.528 452.026,-733.272 491.39,-694 540.837,-644.669 531.09,-616.054 568.39,-557 583.207,-533.543 590.175,-529.826 604.39,-506 622.734,-475.255 640.712,-439.855 655.137,-409.747"/>
<ellipse fill="none" stroke="#745651" cx="348.922" cy="-785.386" rx="4.00002" ry="4.00002"/>
<polygon fill="#745651" stroke="#745651" points="655.2,-409.614 663.56,-402.517 657.348,-405.099 659.496,-400.584 659.496,-400.584 659.496,-400.584 657.348,-405.099 655.433,-398.651 655.2,-409.614 655.2,-409.614"/>
</g>
<!-- CourseLesson -->
<g id="node15" class="node"><title>CourseLesson</title>
<path fill="none" stroke="black" d="M476.89,-279.5C476.89,-279.5 583.89,-279.5 583.89,-279.5 589.89,-279.5 595.89,-285.5 595.89,-291.5 595.89,-291.5 595.89,-388.5 595.89,-388.5 595.89,-394.5 589.89,-400.5 583.89,-400.5 583.89,-400.5 476.89,-400.5 476.89,-400.5 470.89,-400.5 464.89,-394.5 464.89,-388.5 464.89,-388.5 464.89,-291.5 464.89,-291.5 464.89,-285.5 470.89,-279.5 476.89,-279.5"/>
<text text-anchor="middle" x="530.39" y="-385.3" font-family="Times,serif" font-size="14.00">CourseLesson</text>
<polyline fill="none" stroke="black" points="464.89,-377.5 595.89,-377.5 "/>
<text text-anchor="start" x="472.89" y="-362.3" font-family="Times,serif" font-size="14.00">id :INTEGER</text>
<text text-anchor="start" x="472.89" y="-347.3" font-family="Times,serif" font-size="14.00">position :integer</text>
<text text-anchor="start" x="472.89" y="-332.3" font-family="Times,serif" font-size="14.00">created_at :datetime</text>
<text text-anchor="start" x="472.89" y="-317.3" font-family="Times,serif" font-size="14.00">updated_at :datetime</text>
<text text-anchor="start" x="472.89" y="-302.3" font-family="Times,serif" font-size="14.00">course_id :integer</text>
<text text-anchor="start" x="472.89" y="-287.3" font-family="Times,serif" font-size="14.00">lesson_id :integer</text>
</g>
<!-- Lesson&#45;&gt;CourseLesson -->
<g id="edge12" class="edge"><title>Lesson&#45;&gt;CourseLesson</title>
<path fill="none" stroke="#8de99a" d="M535.62,-751.973C534.506,-664.447 532.451,-502.941 531.276,-410.602"/>
<ellipse fill="none" stroke="#8de99a" cx="535.674" cy="-756.24" rx="4" ry="4"/>
<polygon fill="#8de99a" stroke="#8de99a" points="531.275,-410.515 535.647,-400.459 531.211,-405.516 531.148,-400.516 531.148,-400.516 531.148,-400.516 531.211,-405.516 526.648,-400.573 531.275,-410.515 531.275,-410.515"/>
</g>
<!-- Lesson&#45;&gt;Course -->
<g id="edge13" class="edge"><title>Lesson&#45;&gt;Course</title>
<path fill="none" stroke="#da51d3" d="M497.401,-751.559C487.318,-735.798 476.338,-718.638 465.836,-702.221"/>
<polygon fill="#da51d3" stroke="#da51d3" points="497.536,-751.77 499.135,-762.619 500.231,-755.982 502.925,-760.194 502.925,-760.194 502.925,-760.194 500.231,-755.982 506.716,-757.768 497.536,-751.77 497.536,-751.77"/>
<polygon fill="#da51d3" stroke="#da51d3" points="465.783,-702.14 464.185,-691.291 463.089,-697.928 460.394,-693.716 460.394,-693.716 460.394,-693.716 463.089,-697.928 456.603,-696.141 465.783,-702.14 465.783,-702.14"/>
</g>
<!-- Lesson&#45;&gt;LessonVersion -->
<g id="edge11" class="edge"><title>Lesson&#45;&gt;LessonVersion</title>
<path fill="none" stroke="#260b70" d="M562.393,-752.828C568.853,-739.2 576.043,-724.929 583.39,-712 595.389,-690.885 610.92,-668.188 622.891,-651.489"/>
<ellipse fill="none" stroke="#260b70" cx="560.58" cy="-756.698" rx="4.00002" ry="4.00002"/>
<polygon fill="#260b70" stroke="#260b70" points="622.924,-651.443 632.433,-645.983 625.856,-647.394 628.788,-643.344 628.788,-643.344 628.788,-643.344 625.856,-647.394 625.143,-640.705 622.924,-651.443 622.924,-651.443"/>
<text text-anchor="middle" x="606.39" y="-715.8" font-family="Times,serif" font-size="14.00">versions</text>
</g>
<!-- Team -->
<g id="node6" class="node"><title>Team</title>
<path fill="none" stroke="black" d="M644.89,-919.5C644.89,-919.5 777.89,-919.5 777.89,-919.5 783.89,-919.5 789.89,-925.5 789.89,-931.5 789.89,-931.5 789.89,-1088.5 789.89,-1088.5 789.89,-1094.5 783.89,-1100.5 777.89,-1100.5 777.89,-1100.5 644.89,-1100.5 644.89,-1100.5 638.89,-1100.5 632.89,-1094.5 632.89,-1088.5 632.89,-1088.5 632.89,-931.5 632.89,-931.5 632.89,-925.5 638.89,-919.5 644.89,-919.5"/>
<text text-anchor="middle" x="711.39" y="-1085.3" font-family="Times,serif" font-size="14.00">Team</text>
<polyline fill="none" stroke="black" points="632.89,-1077.5 789.89,-1077.5 "/>
<text text-anchor="start" x="640.89" y="-1062.3" font-family="Times,serif" font-size="14.00">id :INTEGER</text>
<text text-anchor="start" x="640.89" y="-1047.3" font-family="Times,serif" font-size="14.00">name :varchar</text>
<text text-anchor="start" x="640.89" y="-1032.3" font-family="Times,serif" font-size="14.00">number :integer</text>
<text text-anchor="start" x="640.89" y="-1017.3" font-family="Times,serif" font-size="14.00">email :varchar</text>
<text text-anchor="start" x="640.89" y="-1002.3" font-family="Times,serif" font-size="14.00">website :varchar</text>
<text text-anchor="start" x="640.89" y="-987.3" font-family="Times,serif" font-size="14.00">moto :varchar</text>
<text text-anchor="start" x="640.89" y="-972.3" font-family="Times,serif" font-size="14.00">program_id :integer</text>
<text text-anchor="start" x="640.89" y="-957.3" font-family="Times,serif" font-size="14.00">created_at :datetime</text>
<text text-anchor="start" x="640.89" y="-942.3" font-family="Times,serif" font-size="14.00">updated_at :datetime</text>
<text text-anchor="start" x="640.89" y="-927.3" font-family="Times,serif" font-size="14.00">cover_image_url :varchar</text>
</g>
<!-- MediaContent -->
<g id="node7" class="node"><title>MediaContent</title>
<path fill="none" stroke="black" d="M963.89,-753C963.89,-753 1070.89,-753 1070.89,-753 1076.89,-753 1082.89,-759 1082.89,-765 1082.89,-765 1082.89,-862 1082.89,-862 1082.89,-868 1076.89,-874 1070.89,-874 1070.89,-874 963.89,-874 963.89,-874 957.89,-874 951.89,-868 951.89,-862 951.89,-862 951.89,-765 951.89,-765 951.89,-759 957.89,-753 963.89,-753"/>
<text text-anchor="middle" x="1017.39" y="-858.8" font-family="Times,serif" font-size="14.00">MediaContent</text>
<polyline fill="none" stroke="black" points="951.89,-851 1082.89,-851 "/>
<text text-anchor="start" x="959.89" y="-835.8" font-family="Times,serif" font-size="14.00">id :INTEGER</text>
<text text-anchor="start" x="959.89" y="-820.8" font-family="Times,serif" font-size="14.00">type :varchar</text>
<text text-anchor="start" x="959.89" y="-805.8" font-family="Times,serif" font-size="14.00">video_url :varchar</text>
<text text-anchor="start" x="959.89" y="-790.8" font-family="Times,serif" font-size="14.00">pdf_url :varchar</text>
<text text-anchor="start" x="959.89" y="-775.8" font-family="Times,serif" font-size="14.00">created_at :datetime</text>
<text text-anchor="start" x="959.89" y="-760.8" font-family="Times,serif" font-size="14.00">updated_at :datetime</text>
</g>
<!-- VimeoContent -->
<g id="node8" class="node"><title>VimeoContent</title>
<path fill="none" stroke="black" d="M1415.89,-949.5C1415.89,-949.5 1522.89,-949.5 1522.89,-949.5 1528.89,-949.5 1534.89,-955.5 1534.89,-961.5 1534.89,-961.5 1534.89,-1058.5 1534.89,-1058.5 1534.89,-1064.5 1528.89,-1070.5 1522.89,-1070.5 1522.89,-1070.5 1415.89,-1070.5 1415.89,-1070.5 1409.89,-1070.5 1403.89,-1064.5 1403.89,-1058.5 1403.89,-1058.5 1403.89,-961.5 1403.89,-961.5 1403.89,-955.5 1409.89,-949.5 1415.89,-949.5"/>
<text text-anchor="middle" x="1469.39" y="-1055.3" font-family="Times,serif" font-size="14.00">VimeoContent</text>
<polyline fill="none" stroke="black" points="1403.89,-1047.5 1534.89,-1047.5 "/>
<text text-anchor="start" x="1411.89" y="-1032.3" font-family="Times,serif" font-size="14.00">id :INTEGER</text>
<text text-anchor="start" x="1411.89" y="-1017.3" font-family="Times,serif" font-size="14.00">type :varchar</text>
<text text-anchor="start" x="1411.89" y="-1002.3" font-family="Times,serif" font-size="14.00">video_url :varchar</text>
<text text-anchor="start" x="1411.89" y="-987.3" font-family="Times,serif" font-size="14.00">pdf_url :varchar</text>
<text text-anchor="start" x="1411.89" y="-972.3" font-family="Times,serif" font-size="14.00">created_at :datetime</text>
<text text-anchor="start" x="1411.89" y="-957.3" font-family="Times,serif" font-size="14.00">updated_at :datetime</text>
</g>
<!-- ModTicketActivity -->
<g id="node9" class="node"><title>ModTicketActivity</title>
<path fill="none" stroke="black" d="M1117.89,-934.5C1117.89,-934.5 1224.89,-934.5 1224.89,-934.5 1230.89,-934.5 1236.89,-940.5 1236.89,-946.5 1236.89,-946.5 1236.89,-1073.5 1236.89,-1073.5 1236.89,-1079.5 1230.89,-1085.5 1224.89,-1085.5 1224.89,-1085.5 1117.89,-1085.5 1117.89,-1085.5 1111.89,-1085.5 1105.89,-1079.5 1105.89,-1073.5 1105.89,-1073.5 1105.89,-946.5 1105.89,-946.5 1105.89,-940.5 1111.89,-934.5 1117.89,-934.5"/>
<text text-anchor="middle" x="1171.39" y="-1070.3" font-family="Times,serif" font-size="14.00">ModTicketActivity</text>
<polyline fill="none" stroke="black" points="1105.89,-1062.5 1236.89,-1062.5 "/>
<text text-anchor="start" x="1113.89" y="-1047.3" font-family="Times,serif" font-size="14.00">id :INTEGER</text>
<text text-anchor="start" x="1113.89" y="-1032.3" font-family="Times,serif" font-size="14.00">type :varchar</text>
<text text-anchor="start" x="1113.89" y="-1017.3" font-family="Times,serif" font-size="14.00">name :varchar</text>
<text text-anchor="start" x="1113.89" y="-1002.3" font-family="Times,serif" font-size="14.00">description :text</text>
<text text-anchor="start" x="1113.89" y="-987.3" font-family="Times,serif" font-size="14.00">created_at :datetime</text>
<text text-anchor="start" x="1113.89" y="-972.3" font-family="Times,serif" font-size="14.00">updated_at :datetime</text>
<text text-anchor="start" x="1113.89" y="-957.3" font-family="Times,serif" font-size="14.00">owner_id :integer</text>
<text text-anchor="start" x="1113.89" y="-942.3" font-family="Times,serif" font-size="14.00">owner_type :varchar</text>
</g>
<!-- ModTicketActivity&#45;&gt;MediaContent -->
<g id="edge15" class="edge"><title>ModTicketActivity&#45;&gt;MediaContent</title>
<path fill="none" stroke="#8f5327" d="M1105.95,-926.356C1094.24,-911.562 1082.16,-896.307 1070.84,-882.002"/>
<polygon fill="#8f5327" stroke="#8f5327" points="1106.08,-926.517 1108.76,-937.151 1109.19,-930.437 1112.29,-934.357 1112.29,-934.357 1112.29,-934.357 1109.19,-930.437 1115.82,-931.564 1106.08,-926.517 1106.08,-926.517"/>
<polygon fill="#8f5327" stroke="#8f5327" points="1070.84,-882.002 1068.16,-871.368 1067.73,-878.082 1064.63,-874.162 1064.63,-874.162 1064.63,-874.162 1067.73,-878.082 1061.1,-876.955 1070.84,-882.002 1070.84,-882.002"/>
</g>
<!-- MediaOutlet -->
<g id="node19" class="node"><title>MediaOutlet</title>
<path fill="none" stroke="black" d="M1112.89,-753C1112.89,-753 1247.89,-753 1247.89,-753 1253.89,-753 1259.89,-759 1259.89,-765 1259.89,-765 1259.89,-862 1259.89,-862 1259.89,-868 1253.89,-874 1247.89,-874 1247.89,-874 1112.89,-874 1112.89,-874 1106.89,-874 1100.89,-868 1100.89,-862 1100.89,-862 1100.89,-765 1100.89,-765 1100.89,-759 1106.89,-753 1112.89,-753"/>
<text text-anchor="middle" x="1180.39" y="-858.8" font-family="Times,serif" font-size="14.00">MediaOutlet</text>
<polyline fill="none" stroke="black" points="1100.89,-851 1259.89,-851 "/>
<text text-anchor="start" x="1108.89" y="-835.8" font-family="Times,serif" font-size="14.00">id :INTEGER</text>
<text text-anchor="start" x="1108.89" y="-820.8" font-family="Times,serif" font-size="14.00">media_content_id :integer</text>
<text text-anchor="start" x="1108.89" y="-805.8" font-family="Times,serif" font-size="14.00">outlet_id :integer</text>
<text text-anchor="start" x="1108.89" y="-790.8" font-family="Times,serif" font-size="14.00">outlet_type :varchar</text>
<text text-anchor="start" x="1108.89" y="-775.8" font-family="Times,serif" font-size="14.00">created_at :datetime</text>
<text text-anchor="start" x="1108.89" y="-760.8" font-family="Times,serif" font-size="14.00">updated_at :datetime</text>
</g>
<!-- ModTicketActivity&#45;&gt;MediaOutlet -->
<g id="edge14" class="edge"><title>ModTicketActivity&#45;&gt;MediaOutlet</title>
<path fill="none" stroke="#e5a43f" d="M1175.21,-926.356C1175.86,-912.384 1176.53,-898.001 1177.16,-884.395"/>
<ellipse fill="none" stroke="#e5a43f" cx="1175.03" cy="-930.362" rx="4" ry="4"/>
<polygon fill="#e5a43f" stroke="#e5a43f" points="1177.17,-884.151 1182.12,-874.37 1177.4,-879.156 1177.63,-874.162 1177.63,-874.162 1177.63,-874.162 1177.4,-879.156 1173.13,-873.954 1177.17,-884.151 1177.17,-884.151"/>
</g>
<!-- CuratedItem -->
<g id="node10" class="node"><title>CuratedItem</title>
<path fill="none" stroke="black" d="M1571.39,-753C1571.39,-753 1691.39,-753 1691.39,-753 1697.39,-753 1703.39,-759 1703.39,-765 1703.39,-765 1703.39,-862 1703.39,-862 1703.39,-868 1697.39,-874 1691.39,-874 1691.39,-874 1571.39,-874 1571.39,-874 1565.39,-874 1559.39,-868 1559.39,-862 1559.39,-862 1559.39,-765 1559.39,-765 1559.39,-759 1565.39,-753 1571.39,-753"/>
<text text-anchor="middle" x="1631.39" y="-858.8" font-family="Times,serif" font-size="14.00">CuratedItem</text>
<polyline fill="none" stroke="black" points="1559.39,-851 1703.39,-851 "/>
<text text-anchor="start" x="1567.39" y="-835.8" font-family="Times,serif" font-size="14.00">id :INTEGER</text>
<text text-anchor="start" x="1567.39" y="-820.8" font-family="Times,serif" font-size="14.00">program_id :integer</text>
<text text-anchor="start" x="1567.39" y="-805.8" font-family="Times,serif" font-size="14.00">curatable_id :integer</text>
<text text-anchor="start" x="1567.39" y="-790.8" font-family="Times,serif" font-size="14.00">curatable_type :varchar</text>
<text text-anchor="start" x="1567.39" y="-775.8" font-family="Times,serif" font-size="14.00">created_at :datetime</text>
<text text-anchor="start" x="1567.39" y="-760.8" font-family="Times,serif" font-size="14.00">updated_at :datetime</text>
</g>
<!-- User&#45;&gt;Contribution -->
<g id="edge16" class="edge"><title>User&#45;&gt;Contribution</title>
<path fill="none" stroke="#cba501" d="M308.39,-166.204C308.39,-159.653 308.39,-153.233 308.39,-147.013"/>
<ellipse fill="none" stroke="#cba501" cx="308.39" cy="-170.467" rx="4" ry="4"/>
<polygon fill="#cba501" stroke="#cba501" points="308.39,-146.746 312.89,-136.746 308.39,-141.746 308.39,-136.746 308.39,-136.746 308.39,-136.746 308.39,-141.746 303.89,-136.746 308.39,-146.746 308.39,-146.746"/>
</g>
<!-- Activity -->
<g id="node12" class="node"><title>Activity</title>
<path fill="none" stroke="black" d="M968.89,-934.5C968.89,-934.5 1075.89,-934.5 1075.89,-934.5 1081.89,-934.5 1087.89,-940.5 1087.89,-946.5 1087.89,-946.5 1087.89,-1073.5 1087.89,-1073.5 1087.89,-1079.5 1081.89,-1085.5 1075.89,-1085.5 1075.89,-1085.5 968.89,-1085.5 968.89,-1085.5 962.89,-1085.5 956.89,-1079.5 956.89,-1073.5 956.89,-1073.5 956.89,-946.5 956.89,-946.5 956.89,-940.5 962.89,-934.5 968.89,-934.5"/>
<text text-anchor="middle" x="1022.39" y="-1070.3" font-family="Times,serif" font-size="14.00">Activity</text>
<polyline fill="none" stroke="black" points="956.89,-1062.5 1087.89,-1062.5 "/>
<text text-anchor="start" x="964.89" y="-1047.3" font-family="Times,serif" font-size="14.00">id :INTEGER</text>
<text text-anchor="start" x="964.89" y="-1032.3" font-family="Times,serif" font-size="14.00">type :varchar</text>
<text text-anchor="start" x="964.89" y="-1017.3" font-family="Times,serif" font-size="14.00">name :varchar</text>
<text text-anchor="start" x="964.89" y="-1002.3" font-family="Times,serif" font-size="14.00">description :text</text>
<text text-anchor="start" x="964.89" y="-987.3" font-family="Times,serif" font-size="14.00">created_at :datetime</text>
<text text-anchor="start" x="964.89" y="-972.3" font-family="Times,serif" font-size="14.00">updated_at :datetime</text>
<text text-anchor="start" x="964.89" y="-957.3" font-family="Times,serif" font-size="14.00">owner_id :integer</text>
<text text-anchor="start" x="964.89" y="-942.3" font-family="Times,serif" font-size="14.00">owner_type :varchar</text>
</g>
<!-- Activity&#45;&gt;MediaContent -->
<g id="edge18" class="edge"><title>Activity&#45;&gt;MediaContent</title>
<path fill="none" stroke="#5957e5" d="M1020.2,-923.983C1019.86,-910.731 1019.52,-897.171 1019.18,-884.308"/>
<polygon fill="#5957e5" stroke="#5957e5" points="1020.21,-924.361 1015.97,-934.473 1020.34,-929.359 1020.47,-934.357 1020.47,-934.357 1020.47,-934.357 1020.34,-929.359 1024.97,-934.242 1020.21,-924.361 1020.21,-924.361"/>
<polygon fill="#5957e5" stroke="#5957e5" points="1019.18,-884.158 1023.42,-874.046 1019.05,-879.16 1018.92,-874.162 1018.92,-874.162 1018.92,-874.162 1019.05,-879.16 1014.43,-874.277 1019.18,-884.158 1019.18,-884.158"/>
</g>
<!-- Activity&#45;&gt;MediaOutlet -->
<g id="edge17" class="edge"><title>Activity&#45;&gt;MediaOutlet</title>
<path fill="none" stroke="#c6c115" d="M1088.37,-927.776C1100.69,-912.614 1113.44,-896.918 1125.38,-882.217"/>
<ellipse fill="none" stroke="#c6c115" cx="1085.55" cy="-931.253" rx="4.00002" ry="4.00002"/>
<polygon fill="#c6c115" stroke="#c6c115" points="1125.62,-881.923 1135.42,-876.999 1128.77,-878.043 1131.92,-874.162 1131.92,-874.162 1131.92,-874.162 1128.77,-878.043 1128.43,-871.324 1125.62,-881.923 1125.62,-881.923"/>
</g>
<!-- UserFeedActivity -->
<g id="node13" class="node"><title>UserFeedActivity</title>
<path fill="none" stroke="black" d="M819.89,-934.5C819.89,-934.5 926.89,-934.5 926.89,-934.5 932.89,-934.5 938.89,-940.5 938.89,-946.5 938.89,-946.5 938.89,-1073.5 938.89,-1073.5 938.89,-1079.5 932.89,-1085.5 926.89,-1085.5 926.89,-1085.5 819.89,-1085.5 819.89,-1085.5 813.89,-1085.5 807.89,-1079.5 807.89,-1073.5 807.89,-1073.5 807.89,-946.5 807.89,-946.5 807.89,-940.5 813.89,-934.5 819.89,-934.5"/>
<text text-anchor="middle" x="873.39" y="-1070.3" font-family="Times,serif" font-size="14.00">UserFeedActivity</text>
<polyline fill="none" stroke="black" points="807.89,-1062.5 938.89,-1062.5 "/>
<text text-anchor="start" x="815.89" y="-1047.3" font-family="Times,serif" font-size="14.00">id :INTEGER</text>
<text text-anchor="start" x="815.89" y="-1032.3" font-family="Times,serif" font-size="14.00">type :varchar</text>
<text text-anchor="start" x="815.89" y="-1017.3" font-family="Times,serif" font-size="14.00">name :varchar</text>
<text text-anchor="start" x="815.89" y="-1002.3" font-family="Times,serif" font-size="14.00">description :text</text>
<text text-anchor="start" x="815.89" y="-987.3" font-family="Times,serif" font-size="14.00">created_at :datetime</text>
<text text-anchor="start" x="815.89" y="-972.3" font-family="Times,serif" font-size="14.00">updated_at :datetime</text>
<text text-anchor="start" x="815.89" y="-957.3" font-family="Times,serif" font-size="14.00">owner_id :integer</text>
<text text-anchor="start" x="815.89" y="-942.3" font-family="Times,serif" font-size="14.00">owner_type :varchar</text>
</g>
<!-- UserFeedActivity&#45;&gt;MediaContent -->
<g id="edge20" class="edge"><title>UserFeedActivity&#45;&gt;MediaContent</title>
<path fill="none" stroke="#f040f5" d="M934.928,-925.882C945.688,-911.348 956.767,-896.383 967.176,-882.324"/>
<polygon fill="#f040f5" stroke="#f040f5" points="934.603,-926.32 925.036,-931.68 931.628,-930.339 928.653,-934.357 928.653,-934.357 928.653,-934.357 931.628,-930.339 932.269,-937.035 934.603,-926.32 934.603,-926.32"/>
<polygon fill="#f040f5" stroke="#f040f5" points="967.269,-882.199 976.836,-876.839 970.244,-878.18 973.219,-874.162 973.219,-874.162 973.219,-874.162 970.244,-878.18 969.602,-871.484 967.269,-882.199 967.269,-882.199"/>
</g>
<!-- UserFeedActivity&#45;&gt;MediaOutlet -->
<g id="edge19" class="edge"><title>UserFeedActivity&#45;&gt;MediaOutlet</title>
<path fill="none" stroke="#dd8d81" d="M934.095,-928.785C938.366,-925.219 942.805,-921.92 947.39,-919 1003.13,-883.504 1031.9,-910.753 1091.39,-882 1093.22,-881.114 1095.06,-880.187 1096.89,-879.224"/>
<ellipse fill="none" stroke="#dd8d81" cx="930.961" cy="-931.545" rx="4.00002" ry="4.00002"/>
<polygon fill="#dd8d81" stroke="#dd8d81" points="1097.26,-879.015 1108.18,-878.059 1101.62,-876.573 1105.99,-874.132 1105.99,-874.132 1105.99,-874.132 1101.62,-876.573 1103.79,-870.205 1097.26,-879.015 1097.26,-879.015"/>
</g>
<!-- Assignment -->
<g id="node14" class="node"><title>Assignment</title>
<path fill="none" stroke="black" d="M1739.89,-942C1739.89,-942 1866.89,-942 1866.89,-942 1872.89,-942 1878.89,-948 1878.89,-954 1878.89,-954 1878.89,-1066 1878.89,-1066 1878.89,-1072 1872.89,-1078 1866.89,-1078 1866.89,-1078 1739.89,-1078 1739.89,-1078 1733.89,-1078 1727.89,-1072 1727.89,-1066 1727.89,-1066 1727.89,-954 1727.89,-954 1727.89,-948 1733.89,-942 1739.89,-942"/>
<text text-anchor="middle" x="1803.39" y="-1062.8" font-family="Times,serif" font-size="14.00">Assignment</text>
<polyline fill="none" stroke="black" points="1727.89,-1055 1878.89,-1055 "/>
<text text-anchor="start" x="1735.89" y="-1039.8" font-family="Times,serif" font-size="14.00">id :INTEGER</text>
<text text-anchor="start" x="1735.89" y="-1024.8" font-family="Times,serif" font-size="14.00">assignable_id :integer</text>
<text text-anchor="start" x="1735.89" y="-1009.8" font-family="Times,serif" font-size="14.00">assignable_type :varchar</text>
<text text-anchor="start" x="1735.89" y="-994.8" font-family="Times,serif" font-size="14.00">claimer_id :integer</text>
<text text-anchor="start" x="1735.89" y="-979.8" font-family="Times,serif" font-size="14.00">claimer_type :varchar</text>
<text text-anchor="start" x="1735.89" y="-964.8" font-family="Times,serif" font-size="14.00">created_at :datetime</text>
<text text-anchor="start" x="1735.89" y="-949.8" font-family="Times,serif" font-size="14.00">updated_at :datetime</text>
</g>
<!-- YoutubeContent -->
<g id="node16" class="node"><title>YoutubeContent</title>
<path fill="none" stroke="black" d="M1908.89,-949.5C1908.89,-949.5 2015.89,-949.5 2015.89,-949.5 2021.89,-949.5 2027.89,-955.5 2027.89,-961.5 2027.89,-961.5 2027.89,-1058.5 2027.89,-1058.5 2027.89,-1064.5 2021.89,-1070.5 2015.89,-1070.5 2015.89,-1070.5 1908.89,-1070.5 1908.89,-1070.5 1902.89,-1070.5 1896.89,-1064.5 1896.89,-1058.5 1896.89,-1058.5 1896.89,-961.5 1896.89,-961.5 1896.89,-955.5 1902.89,-949.5 1908.89,-949.5"/>
<text text-anchor="middle" x="1962.39" y="-1055.3" font-family="Times,serif" font-size="14.00">YoutubeContent</text>
<polyline fill="none" stroke="black" points="1896.89,-1047.5 2027.89,-1047.5 "/>
<text text-anchor="start" x="1904.89" y="-1032.3" font-family="Times,serif" font-size="14.00">id :INTEGER</text>
<text text-anchor="start" x="1904.89" y="-1017.3" font-family="Times,serif" font-size="14.00">type :varchar</text>
<text text-anchor="start" x="1904.89" y="-1002.3" font-family="Times,serif" font-size="14.00">video_url :varchar</text>
<text text-anchor="start" x="1904.89" y="-987.3" font-family="Times,serif" font-size="14.00">pdf_url :varchar</text>
<text text-anchor="start" x="1904.89" y="-972.3" font-family="Times,serif" font-size="14.00">created_at :datetime</text>
<text text-anchor="start" x="1904.89" y="-957.3" font-family="Times,serif" font-size="14.00">updated_at :datetime</text>
</g>
<!-- Course&#45;&gt;Contribution -->
<g id="edge24" class="edge"><title>Course&#45;&gt;Contribution</title>
<path fill="none" stroke="#832b40" d="M434.957,-549.465C452.768,-456.927 470.828,-296.823 417.39,-174 412.004,-161.62 404.374,-149.992 395.62,-139.314"/>
<ellipse fill="none" stroke="#832b40" cx="434.173" cy="-553.457" rx="4.00001" ry="4.00001"/>
<polygon fill="#832b40" stroke="#832b40" points="395.594,-139.284 392.472,-128.771 392.328,-135.497 389.063,-131.71 389.063,-131.71 389.063,-131.71 392.328,-135.497 385.655,-134.649 395.594,-139.284 395.594,-139.284"/>
</g>
<!-- Course&#45;&gt;User -->
<g id="edge25" class="edge"><title>Course&#45;&gt;User</title>
<path fill="none" stroke="#4efc6c" d="M344.88,-565.564C338.042,-557.302 331.968,-548.397 327.39,-539 323.694,-531.413 320.531,-523.471 317.831,-515.31"/>
<polygon fill="#4efc6c" stroke="#4efc6c" points="345.055,-565.764 348.263,-576.25 348.351,-569.524 351.647,-573.284 351.647,-573.284 351.647,-573.284 348.351,-569.524 355.031,-570.318 345.055,-565.764 345.055,-565.764"/>
<polygon fill="#4efc6c" stroke="#4efc6c" points="317.798,-515.2 319.175,-504.321 316.335,-510.418 314.872,-505.637 314.872,-505.637 314.872,-505.637 316.335,-510.418 310.569,-506.954 317.798,-515.2 317.798,-515.2"/>
<text text-anchor="middle" x="374.89" y="-527.8" font-family="Times,serif" font-size="14.00">user_contributors</text>
</g>
<!-- Course&#45;&gt;CourseLesson -->
<g id="edge22" class="edge"><title>Course&#45;&gt;CourseLesson</title>
<path fill="none" stroke="#3670a0" d="M447.214,-549.677C464.428,-506.49 485.929,-452.546 502.758,-410.324"/>
<ellipse fill="none" stroke="#3670a0" cx="445.651" cy="-553.599" rx="4.00001" ry="4.00001"/>
<polygon fill="#3670a0" stroke="#3670a0" points="502.79,-410.244 510.673,-402.621 504.641,-405.6 506.493,-400.955 506.493,-400.955 506.493,-400.955 504.641,-405.6 502.313,-399.289 502.79,-410.244 502.79,-410.244"/>
</g>
<!-- Course&#45;&gt;TrackCourse -->
<g id="edge21" class="edge"><title>Course&#45;&gt;TrackCourse</title>
<path fill="none" stroke="#8f3a96" d="M344.444,-561.316C342.1,-559.815 339.746,-558.372 337.39,-557 280.888,-524.09 247.275,-550.527 199.39,-506 171.916,-480.452 153.765,-442.91 142.212,-410.089"/>
<ellipse fill="none" stroke="#8f3a96" cx="348.114" cy="-563.761" rx="4.00002" ry="4.00002"/>
<polygon fill="#8f3a96" stroke="#8f3a96" points="142.181,-409.997 143.244,-399.083 140.581,-405.26 138.981,-400.523 138.981,-400.523 138.981,-400.523 140.581,-405.26 134.718,-401.963 142.181,-409.997 142.181,-409.997"/>
</g>
<!-- Course&#45;&gt;TopicItem -->
<g id="edge23" class="edge"><title>Course&#45;&gt;TopicItem</title>
<path fill="none" stroke="#e82e18" d="M466.828,-551.396C476.823,-540.834 488.088,-531.141 500.39,-524 540.96,-500.451 566.778,-534.032 604.39,-506 635.688,-482.674 655.78,-444.095 668.238,-410.105"/>
<ellipse fill="none" stroke="#e82e18" cx="464.102" cy="-554.387" rx="4.00002" ry="4.00002"/>
<polygon fill="#e82e18" stroke="#e82e18" points="668.242,-410.092 675.799,-402.145 669.897,-405.374 671.552,-400.656 671.552,-400.656 671.552,-400.656 669.897,-405.374 667.306,-399.166 668.242,-410.092 668.242,-410.092"/>
</g>
<!-- Program -->
<g id="node18" class="node"><title>Program</title>
<path fill="none" stroke="black" d="M1564.89,-949.5C1564.89,-949.5 1697.89,-949.5 1697.89,-949.5 1703.89,-949.5 1709.89,-955.5 1709.89,-961.5 1709.89,-961.5 1709.89,-1058.5 1709.89,-1058.5 1709.89,-1064.5 1703.89,-1070.5 1697.89,-1070.5 1697.89,-1070.5 1564.89,-1070.5 1564.89,-1070.5 1558.89,-1070.5 1552.89,-1064.5 1552.89,-1058.5 1552.89,-1058.5 1552.89,-961.5 1552.89,-961.5 1552.89,-955.5 1558.89,-949.5 1564.89,-949.5"/>
<text text-anchor="middle" x="1631.39" y="-1055.3" font-family="Times,serif" font-size="14.00">Program</text>
<polyline fill="none" stroke="black" points="1552.89,-1047.5 1709.89,-1047.5 "/>
<text text-anchor="start" x="1560.89" y="-1032.3" font-family="Times,serif" font-size="14.00">id :INTEGER</text>
<text text-anchor="start" x="1560.89" y="-1017.3" font-family="Times,serif" font-size="14.00">name :varchar</text>
<text text-anchor="start" x="1560.89" y="-1002.3" font-family="Times,serif" font-size="14.00">description :text</text>
<text text-anchor="start" x="1560.89" y="-987.3" font-family="Times,serif" font-size="14.00">cover_image_url :varchar</text>
<text text-anchor="start" x="1560.89" y="-972.3" font-family="Times,serif" font-size="14.00">created_at :datetime</text>
<text text-anchor="start" x="1560.89" y="-957.3" font-family="Times,serif" font-size="14.00">updated_at :datetime</text>
</g>
<!-- Program&#45;&gt;CuratedItem -->
<g id="edge26" class="edge"><title>Program&#45;&gt;CuratedItem</title>
<path fill="none" stroke="#e02a24" d="M1631.39,-941.073C1631.39,-922.657 1631.39,-902.693 1631.39,-884.181"/>
<ellipse fill="none" stroke="#e02a24" cx="1631.39" cy="-945.322" rx="4" ry="4"/>
<polygon fill="#e02a24" stroke="#e02a24" points="1631.39,-884.065 1635.89,-874.065 1631.39,-879.065 1631.39,-874.065 1631.39,-874.065 1631.39,-874.065 1631.39,-879.065 1626.89,-874.065 1631.39,-884.065 1631.39,-884.065"/>
</g>
<!-- TeamFeedActivity -->
<g id="node21" class="node"><title>TeamFeedActivity</title>
<path fill="none" stroke="black" d="M1266.89,-934.5C1266.89,-934.5 1373.89,-934.5 1373.89,-934.5 1379.89,-934.5 1385.89,-940.5 1385.89,-946.5 1385.89,-946.5 1385.89,-1073.5 1385.89,-1073.5 1385.89,-1079.5 1379.89,-1085.5 1373.89,-1085.5 1373.89,-1085.5 1266.89,-1085.5 1266.89,-1085.5 1260.89,-1085.5 1254.89,-1079.5 1254.89,-1073.5 1254.89,-1073.5 1254.89,-946.5 1254.89,-946.5 1254.89,-940.5 1260.89,-934.5 1266.89,-934.5"/>
<text text-anchor="middle" x="1320.39" y="-1070.3" font-family="Times,serif" font-size="14.00">TeamFeedActivity</text>
<polyline fill="none" stroke="black" points="1254.89,-1062.5 1385.89,-1062.5 "/>
<text text-anchor="start" x="1262.89" y="-1047.3" font-family="Times,serif" font-size="14.00">id :INTEGER</text>
<text text-anchor="start" x="1262.89" y="-1032.3" font-family="Times,serif" font-size="14.00">type :varchar</text>
<text text-anchor="start" x="1262.89" y="-1017.3" font-family="Times,serif" font-size="14.00">name :varchar</text>
<text text-anchor="start" x="1262.89" y="-1002.3" font-family="Times,serif" font-size="14.00">description :text</text>
<text text-anchor="start" x="1262.89" y="-987.3" font-family="Times,serif" font-size="14.00">created_at :datetime</text>
<text text-anchor="start" x="1262.89" y="-972.3" font-family="Times,serif" font-size="14.00">updated_at :datetime</text>
<text text-anchor="start" x="1262.89" y="-957.3" font-family="Times,serif" font-size="14.00">owner_id :integer</text>
<text text-anchor="start" x="1262.89" y="-942.3" font-family="Times,serif" font-size="14.00">owner_type :varchar</text>
</g>
<!-- TeamFeedActivity&#45;&gt;MediaContent -->
<g id="edge28" class="edge"><title>TeamFeedActivity&#45;&gt;MediaContent</title>
<path fill="none" stroke="#4ead53" d="M1258.53,-927.697C1254.62,-924.536 1250.57,-921.609 1246.39,-919 1186.33,-881.47 1153.98,-915.139 1091.39,-882 1089.86,-881.189 1088.33,-880.339 1086.82,-879.453"/>
<polygon fill="#4ead53" stroke="#4ead53" points="1258.8,-927.935 1263.41,-937.886 1262.58,-931.21 1266.36,-934.486 1266.36,-934.486 1266.36,-934.486 1262.58,-931.21 1269.31,-931.086 1258.8,-927.935 1258.8,-927.935"/>
<polygon fill="#4ead53" stroke="#4ead53" points="1086.7,-879.377 1080.65,-870.229 1082.47,-876.704 1078.24,-874.032 1078.24,-874.032 1078.24,-874.032 1082.47,-876.704 1075.84,-877.835 1086.7,-879.377 1086.7,-879.377"/>
</g>
<!-- TeamFeedActivity&#45;&gt;MediaOutlet -->
<g id="edge27" class="edge"><title>TeamFeedActivity&#45;&gt;MediaOutlet</title>
<path fill="none" stroke="#e03010" d="M1261.93,-927.776C1251.11,-912.755 1239.92,-897.209 1229.43,-882.626"/>
<ellipse fill="none" stroke="#e03010" cx="1264.33" cy="-931.111" rx="4.00002" ry="4.00002"/>
<polygon fill="#e03010" stroke="#e03010" points="1229.18,-882.278 1226.99,-871.533 1226.26,-878.22 1223.33,-874.162 1223.33,-874.162 1223.33,-874.162 1226.26,-878.22 1219.68,-876.791 1229.18,-882.278 1229.18,-882.278"/>
</g>
</g>
</svg>
