<?xml version="1.0" encoding="UTF-8" standalone="no"?>
<!DOCTYPE svg PUBLIC "-//W3C//DTD SVG 1.1//EN"
 "http://www.w3.org/Graphics/SVG/1.1/DTD/svg11.dtd">
<!-- Generated by graphviz version 2.38.0 (20140413.2041)
 -->
<!-- Title: models_diagram Pages: 1 -->
<svg width="1624pt" height="406pt"
 viewBox="0.00 0.00 1624.24 406.00" xmlns="http://www.w3.org/2000/svg" xmlns:xlink="http://www.w3.org/1999/xlink">
<g id="graph0" class="graph" transform="scale(1 1) rotate(0) translate(4 402)">
<title>models_diagram</title>
<polygon fill="none" stroke="none" points="-4,4 -4,-402 1620.24,-402 1620.24,4 -4,4"/>
<!-- _diagram_info -->
<g id="node1" class="node"><title>_diagram_info</title>
<text text-anchor="start" x="112.345" y="-383.6" font-family="Times,serif" font-size="13.00">Models diagram</text>
<text text-anchor="start" x="112.345" y="-369.6" font-family="Times,serif" font-size="13.00">Date: Aug 23 2016 &#45; 14:34</text>
<text text-anchor="start" x="112.345" y="-355.6" font-family="Times,serif" font-size="13.00">Migration version: 20160802040730</text>
<text text-anchor="start" x="112.345" y="-341.6" font-family="Times,serif" font-size="13.00">Generated by RailRoady 1.5.1</text>
<text text-anchor="start" x="112.345" y="-327.6" font-family="Times,serif" font-size="13.00">http://railroady.prestonlee.com</text>
</g>
<!-- Contribution -->
<g id="node2" class="node"><title>Contribution</title>
<ellipse fill="none" stroke="black" cx="178.345" cy="-18" rx="55.7903" ry="18"/>
<text text-anchor="middle" x="178.345" y="-14.3" font-family="Times,serif" font-size="14.00">Contribution</text>
</g>
<!-- Topic -->
<g id="node3" class="node"><title>Topic</title>
<ellipse fill="none" stroke="black" cx="367.345" cy="-359" rx="31.3957" ry="18"/>
<text text-anchor="middle" x="367.345" y="-355.3" font-family="Times,serif" font-size="14.00">Topic</text>
</g>
<!-- Track -->
<g id="node4" class="node"><title>Track</title>
<ellipse fill="none" stroke="black" cx="132.345" cy="-265" rx="31.3957" ry="18"/>
<text text-anchor="middle" x="132.345" y="-261.3" font-family="Times,serif" font-size="14.00">Track</text>
</g>
<!-- Topic&#45;&gt;Track -->
<g id="edge3" class="edge"><title>Topic&#45;&gt;Track</title>
<path fill="none" stroke="#d46876" d="M346.962,-334.811C341.107,-329.281 334.386,-323.868 327.345,-320 298.435,-304.118 287.179,-310.634 255.345,-302 226.408,-294.152 193.855,-284.591 169.511,-277.296"/>
<polygon fill="#d46876" stroke="#d46876" points="347.327,-335.179 351.158,-345.454 350.842,-338.735 354.358,-342.29 354.358,-342.29 354.358,-342.29 350.842,-338.735 357.558,-339.126 347.327,-335.179 347.327,-335.179"/>
<polygon fill="#d46876" stroke="#d46876" points="169.19,-277.199 160.91,-270.01 164.402,-275.759 159.614,-274.319 159.614,-274.319 159.614,-274.319 164.402,-275.759 158.318,-278.629 169.19,-277.199 169.19,-277.199"/>
</g>
<!-- Lesson -->
<g id="node5" class="node"><title>Lesson</title>
<ellipse fill="none" stroke="black" cx="367.345" cy="-265" rx="35.9954" ry="18"/>
<text text-anchor="middle" x="367.345" y="-261.3" font-family="Times,serif" font-size="14.00">Lesson</text>
</g>
<!-- Topic&#45;&gt;Lesson -->
<g id="edge5" class="edge"><title>Topic&#45;&gt;Lesson</title>
<path fill="none" stroke="#c9e2d0" d="M367.345,-330.691C367.345,-318.915 367.345,-305.17 367.345,-293.386"/>
<polygon fill="#c9e2d0" stroke="#c9e2d0" points="367.345,-330.696 362.845,-340.695 367.345,-335.696 367.345,-340.696 367.345,-340.696 367.345,-340.696 367.345,-335.696 371.845,-340.696 367.345,-330.696 367.345,-330.696"/>
<polygon fill="#c9e2d0" stroke="#c9e2d0" points="367.345,-293.227 371.845,-283.227 367.345,-288.227 367.345,-283.227 367.345,-283.227 367.345,-283.227 367.345,-288.227 362.845,-283.227 367.345,-293.227 367.345,-293.227"/>
</g>
<!-- Course -->
<g id="node17" class="node"><title>Course</title>
<ellipse fill="none" stroke="black" cx="265.345" cy="-178" rx="35.9954" ry="18"/>
<text text-anchor="middle" x="265.345" y="-174.3" font-family="Times,serif" font-size="14.00">Course</text>
</g>
<!-- Topic&#45;&gt;Course -->
<g id="edge2" class="edge"><title>Topic&#45;&gt;Course</title>
<path fill="none" stroke="#d0b494" d="M351.923,-332.853C343.118,-318.359 331.953,-299.747 322.345,-283 307.15,-256.517 290.433,-225.819 279.056,-204.675"/>
<polygon fill="#d0b494" stroke="#d0b494" points="352.123,-333.183 353.485,-344.064 354.726,-337.453 357.328,-341.722 357.328,-341.722 357.328,-341.722 354.726,-337.453 361.17,-339.38 352.123,-333.183 352.123,-333.183"/>
<polygon fill="#d0b494" stroke="#d0b494" points="278.958,-204.493 278.194,-193.554 276.593,-200.088 274.229,-195.682 274.229,-195.682 274.229,-195.682 276.593,-200.088 270.264,-197.811 278.958,-204.493 278.958,-204.493"/>
</g>
<!-- TopicItem -->
<g id="node22" class="node"><title>TopicItem</title>
<ellipse fill="none" stroke="black" cx="481.345" cy="-91" rx="48.1917" ry="18"/>
<text text-anchor="middle" x="481.345" y="-87.3" font-family="Times,serif" font-size="14.00">TopicItem</text>
</g>
<!-- Topic&#45;&gt;TopicItem -->
<g id="edge1" class="edge"><title>Topic&#45;&gt;TopicItem</title>
<path fill="none" stroke="#65ae97" d="M388.5,-337.642C432.593,-295.156 530.421,-200.585 532.345,-196 544.212,-167.718 523.837,-136.222 505.426,-115.379"/>
<ellipse fill="none" stroke="#65ae97" cx="385.531" cy="-340.501" rx="4.00002" ry="4.00002"/>
<polygon fill="#65ae97" stroke="#65ae97" points="505.332,-115.278 501.838,-104.884 501.934,-111.61 498.537,-107.942 498.537,-107.942 498.537,-107.942 501.934,-111.61 495.235,-111 505.332,-115.278 505.332,-115.278"/>
</g>
<!-- LessonVersion -->
<g id="node23" class="node"><title>LessonVersion</title>
<ellipse fill="none" stroke="black" cx="459.345" cy="-178" rx="63.8893" ry="18"/>
<text text-anchor="middle" x="459.345" y="-174.3" font-family="Times,serif" font-size="14.00">LessonVersion</text>
</g>
<!-- Topic&#45;&gt;LessonVersion -->
<g id="edge4" class="edge"><title>Topic&#45;&gt;LessonVersion</title>
<path fill="none" stroke="#6a9f43" d="M385.463,-334.074C403.57,-309.091 431.004,-268.16 447.345,-229 450.37,-221.75 452.733,-213.576 454.532,-205.97"/>
<polygon fill="#6a9f43" stroke="#6a9f43" points="385.401,-334.158 375.854,-339.553 382.441,-338.188 379.48,-342.217 379.48,-342.217 379.48,-342.217 382.441,-338.188 383.107,-344.882 385.401,-334.158 385.401,-334.158"/>
<polygon fill="#6a9f43" stroke="#6a9f43" points="454.554,-205.87 461.046,-197.032 455.599,-200.98 456.645,-196.091 456.645,-196.091 456.645,-196.091 455.599,-200.98 452.244,-195.15 454.554,-205.87 454.554,-205.87"/>
</g>
<!-- Track&#45;&gt;Contribution -->
<g id="edge9" class="edge"><title>Track&#45;&gt;Contribution</title>
<path fill="none" stroke="#c55dee" d="M106.055,-246.106C58.6965,-211.665 -32.072,-134.156 12.3446,-73 35.2976,-41.3965 77.2137,-27.9276 113.181,-22.3439"/>
<ellipse fill="none" stroke="#c55dee" cx="109.454" cy="-248.54" rx="4.00002" ry="4.00002"/>
<polygon fill="#c55dee" stroke="#c55dee" points="113.241,-22.3357 123.762,-25.4274 118.195,-21.6526 123.148,-20.9696 123.148,-20.9696 123.148,-20.9696 118.195,-21.6526 122.533,-16.5117 113.241,-22.3357 113.241,-22.3357"/>
</g>
<!-- User -->
<g id="node11" class="node"><title>User</title>
<ellipse fill="none" stroke="black" cx="178.345" cy="-91" rx="27.0966" ry="18"/>
<text text-anchor="middle" x="178.345" y="-87.3" font-family="Times,serif" font-size="14.00">User</text>
</g>
<!-- Track&#45;&gt;User -->
<g id="edge10" class="edge"><title>Track&#45;&gt;User</title>
<path fill="none" stroke="#303651" d="M124.943,-236.894C120.403,-215.468 116.913,-185.094 125.345,-160 131.289,-142.309 144.016,-125.72 155.508,-113.356"/>
<polygon fill="#303651" stroke="#303651" points="125.01,-237.18 122.9,-247.941 126.146,-242.05 127.282,-246.919 127.282,-246.919 127.282,-246.919 126.146,-242.05 131.664,-245.896 125.01,-237.18 125.01,-237.18"/>
<polygon fill="#303651" stroke="#303651" points="155.821,-113.035 166.022,-109.012 159.309,-109.453 162.798,-105.872 162.798,-105.872 162.798,-105.872 159.309,-109.453 159.575,-102.732 155.821,-113.035 155.821,-113.035"/>
<text text-anchor="middle" x="172.845" y="-174.3" font-family="Times,serif" font-size="14.00">user_contributors</text>
</g>
<!-- Track&#45;&gt;Course -->
<g id="edge7" class="edge"><title>Track&#45;&gt;Course</title>
<path fill="none" stroke="#920924" d="M161.215,-245.549C183.142,-231.536 213.204,-212.323 235.392,-198.143"/>
<polygon fill="#920924" stroke="#920924" points="160.971,-245.705 150.121,-247.299 156.758,-248.398 152.544,-251.09 152.544,-251.09 152.544,-251.09 156.758,-248.398 154.968,-254.882 160.971,-245.705 160.971,-245.705"/>
<polygon fill="#920924" stroke="#920924" points="235.646,-197.98 246.496,-196.387 239.86,-195.287 244.073,-192.595 244.073,-192.595 244.073,-192.595 239.86,-195.287 241.649,-188.803 235.646,-197.98 235.646,-197.98"/>
</g>
<!-- TrackCourse -->
<g id="node20" class="node"><title>TrackCourse</title>
<ellipse fill="none" stroke="black" cx="77.3446" cy="-91" rx="55.7903" ry="18"/>
<text text-anchor="middle" x="77.3446" y="-87.3" font-family="Times,serif" font-size="14.00">TrackCourse</text>
</g>
<!-- Track&#45;&gt;TrackCourse -->
<g id="edge6" class="edge"><title>Track&#45;&gt;TrackCourse</title>
<path fill="none" stroke="#d487ea" d="M121.524,-239.797C120.049,-236.205 118.61,-232.525 117.345,-229 103.841,-191.362 91.4662,-146.734 84.1638,-118.886"/>
<ellipse fill="none" stroke="#d487ea" cx="123.197" cy="-243.746" rx="4.00001" ry="4.00001"/>
<polygon fill="#d487ea" stroke="#d487ea" points="84.1323,-118.764 85.9776,-107.954 82.877,-113.924 81.6217,-109.084 81.6217,-109.084 81.6217,-109.084 82.877,-113.924 77.2658,-110.214 84.1323,-118.764 84.1323,-118.764"/>
</g>
<!-- Track&#45;&gt;TopicItem -->
<g id="edge8" class="edge"><title>Track&#45;&gt;TopicItem</title>
<path fill="none" stroke="#47183a" d="M166.784,-252.924C203.221,-240.73 262.015,-219.685 310.345,-196 361.614,-170.875 417.517,-135.157 450.984,-112.796"/>
<ellipse fill="none" stroke="#47183a" cx="162.711" cy="-254.276" rx="4.00001" ry="4.00001"/>
<polygon fill="#47183a" stroke="#47183a" points="451.1,-112.717 461.909,-110.872 455.249,-109.928 459.399,-107.138 459.399,-107.138 459.399,-107.138 455.249,-109.928 456.888,-103.403 451.1,-112.717 451.1,-112.717"/>
</g>
<!-- CourseLesson -->
<g id="node15" class="node"><title>CourseLesson</title>
<ellipse fill="none" stroke="black" cx="354.345" cy="-91" rx="60.3893" ry="18"/>
<text text-anchor="middle" x="354.345" y="-87.3" font-family="Times,serif" font-size="14.00">CourseLesson</text>
</g>
<!-- Lesson&#45;&gt;CourseLesson -->
<g id="edge12" class="edge"><title>Lesson&#45;&gt;CourseLesson</title>
<path fill="none" stroke="#73a301" d="M365.415,-238.476C363,-206.52 358.88,-152.007 356.405,-119.259"/>
<ellipse fill="none" stroke="#73a301" cx="365.749" cy="-242.891" rx="4" ry="4"/>
<polygon fill="#73a301" stroke="#73a301" points="356.387,-119.023 360.121,-108.712 356.01,-114.037 355.633,-109.052 355.633,-109.052 355.633,-109.052 356.01,-114.037 351.146,-109.391 356.387,-119.023 356.387,-119.023"/>
</g>
<!-- Lesson&#45;&gt;Course -->
<g id="edge13" class="edge"><title>Lesson&#45;&gt;Course</title>
<path fill="none" stroke="#58d2c3" d="M341.659,-242.596C326.282,-229.781 306.791,-213.539 291.356,-200.676"/>
<polygon fill="#58d2c3" stroke="#58d2c3" points="341.895,-242.792 346.697,-252.651 345.736,-245.993 349.578,-249.194 349.578,-249.194 349.578,-249.194 345.736,-245.993 352.458,-245.737 341.895,-242.792 341.895,-242.792"/>
<polygon fill="#58d2c3" stroke="#58d2c3" points="290.933,-200.323 286.131,-190.464 287.091,-197.122 283.25,-193.921 283.25,-193.921 283.25,-193.921 287.091,-197.122 280.369,-197.378 290.933,-200.323 290.933,-200.323"/>
</g>
<!-- Lesson&#45;&gt;LessonVersion -->
<g id="edge11" class="edge"><title>Lesson&#45;&gt;LessonVersion</title>
<path fill="none" stroke="#571763" d="M380.406,-240.432C386.085,-231.49 393.286,-221.633 401.345,-214 407.048,-208.598 413.724,-203.632 420.476,-199.242"/>
<ellipse fill="none" stroke="#571763" cx="378.274" cy="-243.932" rx="4.00002" ry="4.00002"/>
<polygon fill="#571763" stroke="#571763" points="420.484,-199.238 431.36,-197.835 424.744,-196.619 429.003,-194.001 429.003,-194.001 429.003,-194.001 424.744,-196.619 426.647,-190.167 420.484,-199.238 420.484,-199.238"/>
<text text-anchor="middle" x="424.345" y="-217.8" font-family="Times,serif" font-size="14.00">versions</text>
</g>
<!-- Team -->
<g id="node6" class="node"><title>Team</title>
<ellipse fill="none" stroke="black" cx="447.345" cy="-359" rx="31.3957" ry="18"/>
<text text-anchor="middle" x="447.345" y="-355.3" font-family="Times,serif" font-size="14.00">Team</text>
</g>
<!-- MediaContent -->
<g id="node7" class="node"><title>MediaContent</title>
<ellipse fill="none" stroke="black" cx="702.345" cy="-265" rx="61.99" ry="18"/>
<text text-anchor="middle" x="702.345" y="-261.3" font-family="Times,serif" font-size="14.00">MediaContent</text>
</g>
<!-- VimeoContent -->
<g id="node8" class="node"><title>VimeoContent</title>
<ellipse fill="none" stroke="black" cx="1171.34" cy="-359" rx="63.0888" ry="18"/>
<text text-anchor="middle" x="1171.34" y="-355.3" font-family="Times,serif" font-size="14.00">VimeoContent</text>
</g>
<!-- ModTicketActivity -->
<g id="node9" class="node"><title>ModTicketActivity</title>
<ellipse fill="none" stroke="black" cx="838.345" cy="-359" rx="79.0865" ry="18"/>
<text text-anchor="middle" x="838.345" y="-355.3" font-family="Times,serif" font-size="14.00">ModTicketActivity</text>
</g>
<!-- ModTicketActivity&#45;&gt;MediaContent -->
<g id="edge15" class="edge"><title>ModTicketActivity&#45;&gt;MediaContent</title>
<path fill="none" stroke="#129138" d="M805.998,-336.119C784.271,-321.421 755.773,-302.143 734.158,-287.521"/>
<polygon fill="#129138" stroke="#129138" points="806.061,-336.161 811.822,-345.491 810.202,-338.962 814.344,-341.764 814.344,-341.764 814.344,-341.764 810.202,-338.962 816.865,-338.037 806.061,-336.161 806.061,-336.161"/>
<polygon fill="#129138" stroke="#129138" points="733.934,-287.369 728.173,-278.039 729.793,-284.568 725.651,-281.766 725.651,-281.766 725.651,-281.766 729.793,-284.568 723.13,-285.494 733.934,-287.369 733.934,-287.369"/>
</g>
<!-- MediaOutlet -->
<g id="node19" class="node"><title>MediaOutlet</title>
<ellipse fill="none" stroke="black" cx="838.345" cy="-265" rx="55.7903" ry="18"/>
<text text-anchor="middle" x="838.345" y="-261.3" font-family="Times,serif" font-size="14.00">MediaOutlet</text>
</g>
<!-- ModTicketActivity&#45;&gt;MediaOutlet -->
<g id="edge14" class="edge"><title>ModTicketActivity&#45;&gt;MediaOutlet</title>
<path fill="none" stroke="#5a893b" d="M838.345,-332.451C838.345,-320.315 838.345,-305.795 838.345,-293.427"/>
<ellipse fill="none" stroke="#5a893b" cx="838.345" cy="-336.696" rx="4" ry="4"/>
<polygon fill="#5a893b" stroke="#5a893b" points="838.345,-293.227 842.845,-283.227 838.345,-288.227 838.345,-283.227 838.345,-283.227 838.345,-283.227 838.345,-288.227 833.845,-283.227 838.345,-293.227 838.345,-293.227"/>
</g>
<!-- CuratedItem -->
<g id="node10" class="node"><title>CuratedItem</title>
<ellipse fill="none" stroke="black" cx="1294.34" cy="-265" rx="55.4913" ry="18"/>
<text text-anchor="middle" x="1294.34" y="-261.3" font-family="Times,serif" font-size="14.00">CuratedItem</text>
</g>
<!-- User&#45;&gt;Contribution -->
<g id="edge16" class="edge"><title>User&#45;&gt;Contribution</title>
<path fill="none" stroke="#6a0e64" d="M178.345,-64.791C178.345,-58.832 178.345,-52.4496 178.345,-46.3988"/>
<ellipse fill="none" stroke="#6a0e64" cx="178.345" cy="-68.8129" rx="4" ry="4"/>
<polygon fill="#6a0e64" stroke="#6a0e64" points="178.345,-46.0288 182.845,-36.0288 178.345,-41.0288 178.345,-36.0288 178.345,-36.0288 178.345,-36.0288 178.345,-41.0288 173.845,-36.0289 178.345,-46.0288 178.345,-46.0288"/>
</g>
<!-- Activity -->
<g id="node12" class="node"><title>Activity</title>
<ellipse fill="none" stroke="black" cx="701.345" cy="-359" rx="39.7935" ry="18"/>
<text text-anchor="middle" x="701.345" y="-355.3" font-family="Times,serif" font-size="14.00">Activity</text>
</g>
<!-- Activity&#45;&gt;MediaContent -->
<g id="edge18" class="edge"><title>Activity&#45;&gt;MediaContent</title>
<path fill="none" stroke="#bd6ed0" d="M701.641,-330.691C701.769,-318.915 701.919,-305.17 702.047,-293.386"/>
<polygon fill="#bd6ed0" stroke="#bd6ed0" points="701.641,-330.696 697.033,-340.647 701.587,-335.696 701.533,-340.696 701.533,-340.696 701.533,-340.696 701.587,-335.696 706.032,-340.744 701.641,-330.696 701.641,-330.696"/>
<polygon fill="#bd6ed0" stroke="#bd6ed0" points="702.049,-293.226 706.657,-283.276 702.103,-288.227 702.157,-283.227 702.157,-283.227 702.157,-283.227 702.103,-288.227 697.658,-283.178 702.049,-293.226 702.049,-293.226"/>
</g>
<!-- Activity&#45;&gt;MediaOutlet -->
<g id="edge17" class="edge"><title>Activity&#45;&gt;MediaOutlet</title>
<path fill="none" stroke="#b99e0a" d="M726.682,-337.505C734.176,-331.676 742.481,-325.438 750.345,-320 753.008,-318.158 780.715,-301.183 804.338,-286.75"/>
<ellipse fill="none" stroke="#b99e0a" cx="723.209" cy="-340.236" rx="4.00002" ry="4.00002"/>
<polygon fill="#b99e0a" stroke="#b99e0a" points="804.597,-286.592 815.477,-285.22 808.864,-283.986 813.131,-281.379 813.131,-281.379 813.131,-281.379 808.864,-283.986 810.785,-277.539 804.597,-286.592 804.597,-286.592"/>
</g>
<!-- UserFeedActivity -->
<g id="node13" class="node"><title>UserFeedActivity</title>
<ellipse fill="none" stroke="black" cx="570.345" cy="-359" rx="73.387" ry="18"/>
<text text-anchor="middle" x="570.345" y="-355.3" font-family="Times,serif" font-size="14.00">UserFeedActivity</text>
</g>
<!-- UserFeedActivity&#45;&gt;MediaContent -->
<g id="edge20" class="edge"><title>UserFeedActivity&#45;&gt;MediaContent</title>
<path fill="none" stroke="#dbfb1d" d="M602.054,-335.899C623.115,-321.221 650.625,-302.047 671.505,-287.494"/>
<polygon fill="#dbfb1d" stroke="#dbfb1d" points="601.844,-336.046 591.067,-338.072 597.742,-338.905 593.64,-341.764 593.64,-341.764 593.64,-341.764 597.742,-338.905 596.213,-345.456 601.844,-336.046 601.844,-336.046"/>
<polygon fill="#dbfb1d" stroke="#dbfb1d" points="671.519,-287.484 682.296,-285.458 675.621,-284.625 679.723,-281.766 679.723,-281.766 679.723,-281.766 675.621,-284.625 677.15,-278.075 671.519,-287.484 671.519,-287.484"/>
</g>
<!-- UserFeedActivity&#45;&gt;MediaOutlet -->
<g id="edge19" class="edge"><title>UserFeedActivity&#45;&gt;MediaOutlet</title>
<path fill="none" stroke="#5a14f7" d="M608.394,-338.909C622.061,-332.442 637.715,-325.478 652.345,-320 676.988,-310.773 741.024,-292.644 787.073,-279.946"/>
<ellipse fill="none" stroke="#5a14f7" cx="604.632" cy="-340.71" rx="4.00002" ry="4.00002"/>
<polygon fill="#5a14f7" stroke="#5a14f7" points="787.254,-279.897 798.09,-281.584 792.075,-278.571 796.896,-277.245 796.896,-277.245 796.896,-277.245 792.075,-278.571 795.703,-272.906 787.254,-279.897 787.254,-279.897"/>
</g>
<!-- Assignment -->
<g id="node14" class="node"><title>Assignment</title>
<ellipse fill="none" stroke="black" cx="1407.34" cy="-359" rx="53.0913" ry="18"/>
<text text-anchor="middle" x="1407.34" y="-355.3" font-family="Times,serif" font-size="14.00">Assignment</text>
</g>
<!-- YoutubeContent -->
<g id="node16" class="node"><title>YoutubeContent</title>
<ellipse fill="none" stroke="black" cx="1547.34" cy="-359" rx="68.7879" ry="18"/>
<text text-anchor="middle" x="1547.34" y="-355.3" font-family="Times,serif" font-size="14.00">YoutubeContent</text>
</g>
<!-- Course&#45;&gt;Contribution -->
<g id="edge24" class="edge"><title>Course&#45;&gt;Contribution</title>
<path fill="none" stroke="#9aca0e" d="M260.642,-152.002C258.635,-143.825 255.915,-134.835 252.345,-127 238.263,-96.0963 215.411,-64.4767 198.823,-43.504"/>
<ellipse fill="none" stroke="#9aca0e" cx="261.532" cy="-155.934" rx="4.00001" ry="4.00001"/>
<polygon fill="#9aca0e" stroke="#9aca0e" points="198.63,-43.2639 195.87,-32.6511 195.497,-39.3676 192.363,-35.4714 192.363,-35.4714 192.363,-35.4714 195.497,-39.3676 188.856,-38.2916 198.63,-43.2639 198.63,-43.2639"/>
</g>
<!-- Course&#45;&gt;User -->
<g id="edge25" class="edge"><title>Course&#45;&gt;User</title>
<path fill="none" stroke="#3927e8" d="M224.358,-166.211C195.596,-158.227 161.544,-147.775 157.345,-142 151.531,-134.004 154.019,-124.156 158.977,-115.32"/>
<polygon fill="#3927e8" stroke="#3927e8" points="224.608,-166.279 233.065,-173.26 229.431,-167.6 234.253,-168.92 234.253,-168.92 234.253,-168.92 229.431,-167.6 235.441,-164.58 224.608,-166.279 224.608,-166.279"/>
<polygon fill="#3927e8" stroke="#3927e8" points="159.015,-115.262 168.292,-109.415 161.779,-111.095 164.542,-106.928 164.542,-106.928 164.542,-106.928 161.779,-111.095 160.792,-104.441 159.015,-115.262 159.015,-115.262"/>
<text text-anchor="middle" x="204.845" y="-130.8" font-family="Times,serif" font-size="14.00">user_contributors</text>
</g>
<!-- Course&#45;&gt;CourseLesson -->
<g id="edge22" class="edge"><title>Course&#45;&gt;CourseLesson</title>
<path fill="none" stroke="#2e3cdc" d="M281.487,-154.16C288.337,-145.214 296.725,-135.162 305.345,-127 310.343,-122.267 316.011,-117.653 321.675,-113.411"/>
<ellipse fill="none" stroke="#2e3cdc" cx="278.965" cy="-157.532" rx="4.00002" ry="4.00002"/>
<polygon fill="#2e3cdc" stroke="#2e3cdc" points="321.778,-113.337 332.521,-111.14 325.834,-110.413 329.89,-107.49 329.89,-107.49 329.89,-107.49 325.834,-110.413 327.259,-103.839 321.778,-113.337 321.778,-113.337"/>
</g>
<!-- Course&#45;&gt;TrackCourse -->
<g id="edge21" class="edge"><title>Course&#45;&gt;TrackCourse</title>
<path fill="none" stroke="#0c51e6" d="M226.497,-166.543C198.707,-158.806 163.912,-148.52 150.345,-142 134.557,-134.413 118.352,-123.665 105.232,-114.078"/>
<ellipse fill="none" stroke="#0c51e6" cx="230.639" cy="-167.688" rx="4.00001" ry="4.00001"/>
<polygon fill="#0c51e6" stroke="#0c51e6" points="105.1,-113.979 99.7865,-104.386 101.095,-110.984 97.0914,-107.99 97.0914,-107.99 97.0914,-107.99 101.095,-110.984 94.3963,-111.593 105.1,-113.979 105.1,-113.979"/>
</g>
<!-- Course&#45;&gt;TopicItem -->
<g id="edge23" class="edge"><title>Course&#45;&gt;TopicItem</title>
<path fill="none" stroke="#5c5386" d="M287.012,-156.197C298.917,-145.893 314.465,-134.157 330.345,-127 368.727,-109.701 382.432,-118.932 423.345,-109 427.417,-108.011 431.63,-106.918 435.842,-105.775"/>
<ellipse fill="none" stroke="#5c5386" cx="283.78" cy="-159.075" rx="4.00002" ry="4.00002"/>
<polygon fill="#5c5386" stroke="#5c5386" points="435.966,-105.741 446.808,-107.383 440.781,-104.395 445.597,-103.049 445.597,-103.049 445.597,-103.049 440.781,-104.395 444.385,-98.715 435.966,-105.741 435.966,-105.741"/>
</g>
<!-- Program -->
<g id="node18" class="node"><title>Program</title>
<ellipse fill="none" stroke="black" cx="1294.34" cy="-359" rx="41.6928" ry="18"/>
<text text-anchor="middle" x="1294.34" y="-355.3" font-family="Times,serif" font-size="14.00">Program</text>
</g>
<!-- Program&#45;&gt;CuratedItem -->
<g id="edge26" class="edge"><title>Program&#45;&gt;CuratedItem</title>
<path fill="none" stroke="#9b31be" d="M1294.34,-332.451C1294.34,-320.315 1294.34,-305.795 1294.34,-293.427"/>
<ellipse fill="none" stroke="#9b31be" cx="1294.34" cy="-336.696" rx="4" ry="4"/>
<polygon fill="#9b31be" stroke="#9b31be" points="1294.34,-293.227 1298.84,-283.227 1294.34,-288.227 1294.34,-283.227 1294.34,-283.227 1294.34,-283.227 1294.34,-288.227 1289.84,-283.227 1294.34,-293.227 1294.34,-293.227"/>
</g>
<!-- TeamFeedActivity -->
<g id="node21" class="node"><title>TeamFeedActivity</title>
<ellipse fill="none" stroke="black" cx="1013.34" cy="-359" rx="77.1866" ry="18"/>
<text text-anchor="middle" x="1013.34" y="-355.3" font-family="Times,serif" font-size="14.00">TeamFeedActivity</text>
</g>
<!-- TeamFeedActivity&#45;&gt;MediaContent -->
<g id="edge28" class="edge"><title>TeamFeedActivity&#45;&gt;MediaContent</title>
<path fill="none" stroke="#8bdd9e" d="M972.52,-338.408C958.14,-331.98 941.724,-325.168 926.345,-320 924.307,-319.315 823.978,-295.195 758.298,-279.426"/>
<polygon fill="#8bdd9e" stroke="#8bdd9e" points="972.542,-338.418 979.784,-346.652 977.094,-340.486 981.646,-342.555 981.646,-342.555 981.646,-342.555 977.094,-340.486 983.508,-338.459 972.542,-338.418 972.542,-338.418"/>
<polygon fill="#8bdd9e" stroke="#8bdd9e" points="758.198,-279.402 749.525,-272.692 753.336,-278.235 748.475,-277.068 748.475,-277.068 748.475,-277.068 753.336,-278.235 747.424,-281.444 758.198,-279.402 758.198,-279.402"/>
</g>
<!-- TeamFeedActivity&#45;&gt;MediaOutlet -->
<g id="edge27" class="edge"><title>TeamFeedActivity&#45;&gt;MediaOutlet</title>
<path fill="none" stroke="#9c0092" d="M977.34,-338.066C957.146,-326.983 931.443,-313.04 908.345,-301 898.197,-295.711 887.151,-290.114 876.895,-284.984"/>
<ellipse fill="none" stroke="#9c0092" cx="981.01" cy="-340.084" rx="4.00002" ry="4.00002"/>
<polygon fill="#9c0092" stroke="#9c0092" points="876.697,-284.885 869.753,-276.398 872.222,-282.656 867.746,-280.426 867.746,-280.426 867.746,-280.426 872.222,-282.656 865.74,-284.454 876.697,-284.885 876.697,-284.885"/>
</g>
</g>
</svg>
